<?xml version="1.0" encoding="UTF-8"?>
<!DOCTYPE svg PUBLIC "-//W3C//DTD SVG 1.1//EN" "http://www.w3.org/Graphics/SVG/1.1/DTD/svg11.dtd">
<!-- Creator: CorelDRAW 2020 (64-Bit) -->
<svg xmlns="http://www.w3.org/2000/svg" xml:space="preserve" width="606.299in" height="606.299in" version="1.1" style="shape-rendering:geometricPrecision; text-rendering:geometricPrecision; image-rendering:optimizeQuality; fill-rule:evenodd; clip-rule:evenodd"
viewBox="0 0 606299.21 606299.21"
 xmlns:xlink="http://www.w3.org/1999/xlink"
 xmlns:xodm="http://www.corel.com/coreldraw/odm/2003">
 <defs>
  <style type="text/css">
   <![CDATA[
    .str2 {stroke:#FEFEFE;stroke-width:6.94;stroke-miterlimit:2.61313}
    .str1 {stroke:#373435;stroke-width:6.94;stroke-miterlimit:2.61313}
    .str3 {stroke:black;stroke-width:6.94;stroke-miterlimit:2.61313}
    .str0 {stroke:#6E6665;stroke-width:3;stroke-miterlimit:2.61313}
    .fil2 {fill:none}
    .fil1 {fill:#FEFEFE}
    .fil0 {fill:black}
   ]]>
  </style>
 </defs>
 <rect class="fil0" width="606299.21" height="606299.21"/>
 <g id="Layer_x0020_1">
  <metadata id="CorelCorpID_0Corel-Layer"/>
  <path class="fil1" d="M412076.24 162222.27c0,-9567.13 -7755.69,-17322.82 -17322.81,-17322.83 -9567.13,-0.01 -17322.83,7755.66 -17322.86,17322.79 -0.03,9567.13 7755.64,17322.84 17322.76,17322.88 9567.13,0.04 17322.85,-7755.61 17322.91,-17322.74l0 -0.09zm-3149.17 101474.39l787.4 0 0 -1771.65 -787.4 0 0 1771.65zm-69435.11 295217.04c574.74,-151.02 1148.44,-305.95 1721.07,-464.77l-210.42 -758.67c-569.19,157.87 -1139.45,311.87 -1710.74,461.98l200.09 761.46zm-31538.88 4292.66c594.2,-8.08 1188.33,-20.2 1782.36,-36.35l-21.41 -787.02c-590.46,16.06 -1181.03,28.1 -1771.65,36.13l10.7 787.24zm3543.96 -96.12c593.76,-24.14 1187.35,-52.31 1780.72,-84.53l-42.68 -786.15c-589.81,32.02 -1179.83,60.02 -1770.03,84.02l31.98 786.66zm3540.07 -191.9c592.89,-40.19 1185.5,-84.4 1777.79,-132.64l-63.92 -784.72c-588.73,47.95 -1177.78,91.91 -1767.11,131.85l53.24 785.51zm3533.59 -287.54c591.58,-56.2 1182.78,-116.42 1773.55,-180.66l-85.11 -782.7c-587.22,63.85 -1174.87,123.71 -1762.9,179.57l74.46 783.78zm3524.52 -382.97c589.85,-72.17 1179.2,-148.36 1768.02,-228.55l-106.24 -780.11c-585.28,79.7 -1171.09,155.43 -1757.4,227.17l95.62 781.48zm3512.88 -478.13c587.68,-88.1 1174.76,-180.19 1761.19,-276.26l-127.29 -776.96c-582.91,95.5 -1166.46,187.04 -1750.62,274.61l116.72 778.61zm3498.66 -572.93c585.09,-103.95 1169.46,-211.89 1753.08,-323.78l-148.25 -773.23c-580.11,111.23 -1160.98,218.51 -1742.55,321.84l137.72 775.17zm3481.89 -667.31c582.06,-119.74 1163.3,-243.43 1743.69,-371.06l-169.11 -768.94c-576.89,126.87 -1154.65,249.82 -1733.21,368.83l158.63 771.17zm3462.58 -761.21c578.61,-135.43 1156.3,-274.79 1733.01,-418.07l-189.83 -764.08c-573.26,142.42 -1147.47,280.94 -1722.61,415.56l179.43 766.6zm6857.1 -1801.81c570.44,-166.5 1139.75,-336.89 1707.88,-511.13l-230.86 -752.7c-564.72,173.2 -1130.61,342.56 -1697.63,508.06l220.6 755.78zm3389.51 -1039.29c565.73,-181.87 1130.22,-367.58 1693.44,-557.12l-251.13 -746.19c-559.83,188.41 -1120.93,373 -1683.27,553.78l240.96 749.54zm5037.93 -1733.25l-271.2 -739.13c-554.53,203.47 -1110.44,403.17 -1667.68,599.08l261.13 742.75c560.61,-197.1 1119.88,-398 1677.76,-602.7zm1650.62 -618.28c555.08,-212.18 1108.7,-428.14 1660.85,-647.85l-291.09 -731.52c-548.83,218.39 -1099.13,433.05 -1650.87,643.96l281.12 735.41zm3294.15 -1310.53c549.14,-227.11 1096.72,-457.96 1642.72,-692.52l-310.76 -723.39c-542.72,233.15 -1087.02,462.61 -1632.86,688.36l300.9 727.54zm3257.51 -1399.11c542.8,-241.87 1083.94,-487.44 1623.4,-736.67l-330.2 -714.72c-536.22,247.74 -1074.11,491.83 -1613.65,732.25l320.46 719.14zm3218.49 -1486.67c536.06,-256.46 1070.37,-516.57 1602.89,-780.3l-349.41 -705.53c-529.32,262.15 -1060.42,520.69 -1593.26,775.61l339.79 710.22zm3177.12 -1573.15c528.93,-270.86 1056.01,-545.32 1581.2,-823.35l-368.36 -695.83c-522.04,276.36 -1045.96,549.17 -1571.71,818.41l358.87 700.77zm4691.79 -2524.27l-387.04 -685.61c-514.38,290.37 -1030.73,577.25 -1549.01,860.6l377.68 690.81c521.41,-285.07 1040.88,-573.67 1558.37,-865.8zm1529.07 -876.79c513.51,-299.06 1024.99,-601.6 1534.39,-907.62l-405.43 -674.9c-506.34,304.18 -1014.74,604.91 -1525.17,902.17l396.22 680.35zm3039.2 -1825.43c505.24,-312.83 1008.35,-629.09 1509.29,-948.77l-423.53 -663.69c-497.93,317.75 -998.02,632.12 -1500.23,943.07l414.47 669.39zm2988.73 -1906.93c496.6,-326.38 990.97,-656.13 1483.09,-989.23l-441.32 -652c-489.16,331.1 -980.56,658.87 -1474.18,983.29l432.41 657.94zm2936.08 -1987.04l-450.04 -646c484.66,-337.65 967.03,-678.58 1447.06,-1022.79l458.79 639.83c-482.93,346.28 -968.2,689.28 -1455.8,1028.96zm2881.29 -2065.69c478.23,-352.74 954.06,-708.74 1427.44,-1067.95l-475.92 -627.19c-470.54,357.06 -943.51,710.91 -1418.87,1061.54l467.35 633.6zm4222.43 -3249l-492.7 -614.09c-460.72,369.65 -923.95,736.16 -1389.65,1099.51l484.31 620.73c468.52,-365.55 934.54,-734.28 1398.05,-1106.16zm2735 -2255.81l-509.13 -600.55c-450.56,381.97 -903.7,760.87 -1359.42,1136.69l500.91 607.41c458.46,-378.08 914.35,-759.27 1367.63,-1143.55zm2673 -2328.94l-525.17 -586.56c-440.07,394.01 -882.81,785.03 -1328.19,1173.02l517.15 593.65c448.07,-390.33 893.49,-783.71 1336.21,-1180.11zm2609.06 -2400.35l-540.84 -572.15c-429.25,405.77 -861.26,808.61 -1295.99,1208.5l533.01 579.44c437.36,-402.31 871.97,-807.59 1303.82,-1215.8zm1272.74 -1219.41c426.31,-413.98 849.81,-830.86 1270.46,-1250.61l-556.11 -557.31c-418.13,417.22 -839.08,831.6 -1262.84,1243.1l548.49 564.82zm3745.96 -3788.48l-570.98 -542.07c-406.69,428.38 -816.29,853.98 -1228.77,1276.79l563.56 549.79c414.97,-425.36 827.04,-853.54 1236.19,-1284.5zm1204.96 -1286.42c403.31,-436.43 803.66,-875.59 1201.01,-1317.46l-585.43 -526.44c-394.96,439.21 -792.9,875.74 -1193.8,1309.54l578.22 534.35zm2370.75 -2635.99l-592.45 -518.52c389.02,-444.48 775.02,-891.61 1157.96,-1341.34l599.44 510.42c-385.26,452.45 -773.58,902.28 -1164.95,1349.44zm2298.62 -2699.12c379.14,-457.59 755.16,-917.75 1128.04,-1380.45l-613.02 -494.02c-370.64,459.92 -744.41,917.32 -1121.27,1372.16l606.25 502.31zm3315.11 -4170.73l-626.16 -477.27c-358.07,469.78 -719.33,937.11 -1083.76,1401.97l619.61 485.74c366.63,-467.67 730.07,-937.83 1090.3,-1410.44zm1059.06 -1408.98c353.85,-477.41 704.44,-957.23 1051.77,-1439.41l-638.83 -460.17c-345.24,479.28 -693.73,956.22 -1045.46,1430.76l632.52 468.81zm2072.34 -2876.51c340.81,-486.8 678.31,-975.92 1012.47,-1467.31l-651.04 -442.72c-332.15,488.44 -667.62,974.62 -1006.39,1458.5l644.96 451.54zm1993.81 -2931.48c327.52,-495.84 651.67,-993.91 972.43,-1494.15l-662.77 -424.96c-318.83,497.24 -641.03,992.31 -966.59,1485.18l656.94 433.93zm1913.82 -2984.32c314,-504.52 624.57,-1011.16 931.68,-1519.9l-674.02 -406.89c-305.26,505.69 -613.96,1009.29 -926.08,1510.78l668.43 416.01zm1832.44 -3034.97c300.24,-512.82 597,-1027.68 890.24,-1544.54l-684.78 -388.52c-291.48,513.76 -586.45,1025.52 -884.89,1535.26l679.43 397.79zm2597.87 -4651.45l-695.03 -369.86c-277.48,521.45 -558.51,1041 -843.06,1558.63l689.94 379.27c286.27,-520.75 569,-1043.44 848.16,-1568.04zm117.61 -1922.03l699.94 360.48c272.08,-528.3 540.57,-1058.44 805.45,-1590.4l-704.78 -350.93c-263.28,528.76 -530.16,1055.72 -800.61,1580.85zm3042.58 -4424.59l-714 -331.75c-248.89,535.68 -501.43,1069.67 -757.58,1601.91l709.43 341.43c257.7,-535.46 511.76,-1072.67 762.15,-1611.59zm1450.26 -3235.07l-722.72 -312.32c-234.32,542.22 -472.32,1082.83 -713.99,1621.81l718.4 322.12c243.13,-542.24 482.57,-1086.12 718.31,-1631.61zm688.33 -1622.66c228.38,-548.61 453.03,-1098.77 673.93,-1650.44l-730.89 -292.67c-219.57,548.35 -442.87,1095.2 -669.88,1640.52l726.85 302.58zm1947.19 -4959.17l-738.54 -272.8c-204.67,554.09 -413.1,1106.78 -625.28,1658.04l734.76 282.81c213.46,-554.59 423.15,-1110.61 629.06,-1668.05zm1183.34 -3341.94l-745.65 -252.73c-189.61,559.42 -383.02,1117.54 -580.22,1674.33l742.14 262.85c198.39,-560.15 392.97,-1121.65 583.73,-1684.45zm1092.55 -3372.72l-752.2 -232.48c-174.42,564.34 -352.67,1127.49 -534.74,1689.41l748.98 242.69c183.17,-565.31 362.5,-1131.87 537.97,-1699.62zm242.75 -3613.08c-159.09,568.85 -322.06,1136.62 -488.87,1703.25l755.26 222.35c167.82,-570.06 331.77,-1141.25 491.83,-1713.54l-758.22 -212.06zm903.19 -3406.27c-143.66,572.95 -291.21,1144.91 -442.65,1715.85l761 201.84c152.35,-574.39 300.79,-1149.8 445.32,-1726.21l-763.67 -191.48zm810.76 -3429.44c-128.11,576.62 -260.15,1152.36 -396.09,1727.19l766.18 181.2c136.76,-578.3 269.59,-1157.52 398.48,-1737.62l-768.57 -170.76zm1490.65 -3300.19l-772.91 -149.92c-112.48,579.87 -228.89,1158.97 -349.24,1737.26l770.8 160.42c121.08,-581.79 238.2,-1164.39 351.36,-1747.76zm-148.71 -3618.17c-96.76,582.7 -197.48,1164.74 -302.15,1746.07l774.85 139.52c105.31,-584.84 206.63,-1170.4 303.98,-1756.62l-776.68 -128.97zm530.2 -3483.86c-80.97,585.11 -165.91,1169.65 -254.83,1753.6l778.34 118.52c89.45,-587.48 174.91,-1175.56 256.37,-1764.2l-779.88 -107.92zm435.81 -3496.92c-65.12,587.08 -134.23,1173.71 -207.32,1759.85l781.26 97.43c73.54,-589.68 143.06,-1179.86 208.57,-1770.48l-782.52 -86.8zm1125.69 -3441.82c-49.52,592.19 -103.06,1184.02 -160.63,1775.48l-783.61 -76.27c57.22,-587.91 110.44,-1176.19 159.67,-1764.81l784.57 65.61zm247.64 -3536.6l-786.06 -44.37c-33.29,589.74 -70.59,1179.25 -111.89,1768.48l785.39 55.06c41.56,-592.8 79.08,-1185.87 112.57,-1779.17zm151.93 -3542.01l-786.97 -23.1c-17.33,590.43 -38.68,1180.73 -64.04,1770.87l786.59 33.8c25.51,-593.7 46.98,-1187.57 64.42,-1781.56zm-731.2 -3546.64c-1.37,590.68 -6.74,1181.34 -16.14,1771.95l787.21 12.52c9.45,-594.18 14.86,-1188.41 16.23,-1782.65l-787.31 -1.82zm-39.52 -3523.75c14.61,590.5 25.2,1181.09 31.78,1771.74l787.26 -8.77c-6.62,-594.21 -17.28,-1188.37 -31.97,-1782.44l-787.07 19.47zm-134.77 -3521.4c30.57,589.89 57.12,1179.98 79.67,1770.23l786.74 -30.05c-22.68,-593.81 -49.4,-1187.47 -80.15,-1780.93l-786.26 40.74zm-229.93 -3516.47c46.5,588.85 89.01,1178 127.5,1767.43l785.64 -51.31c-38.73,-592.99 -81.49,-1185.7 -128.28,-1778.11l-784.87 61.98zm-324.92 -3508.96c62.41,587.37 120.82,1175.17 175.24,1763.33l783.96 -72.53c-54.74,-591.72 -113.51,-1183.07 -176.3,-1773.99l-782.91 83.19zm-419.67 -3498.9c78.27,585.47 152.56,1171.47 222.85,1757.95l781.72 -93.7c-70.72,-590.03 -145.46,-1179.57 -224.2,-1768.57l-780.37 104.32zm-514.12 -3486.27c94.07,583.14 184.17,1166.92 270.3,1751.28l778.9 -114.8c-86.65,-587.9 -177.3,-1175.2 -271.93,-1761.86l-777.26 125.38zm-608.19 -3471.09c109.8,580.39 215.65,1161.51 317.55,1743.33l775.51 -135.82c-102.51,-585.34 -209,-1169.98 -319.47,-1753.87l-773.59 146.35zm-701.81 -3453.39c125.45,577.2 246.98,1155.26 364.57,1734.11l771.55 -156.74c-118.3,-582.35 -240.56,-1163.9 -366.77,-1744.59l-769.35 167.21zm-30.38 -3621.1l-764.55 187.95c141.01,573.6 278.12,1148.16 411.32,1723.62l767.03 -177.54c-134,-578.94 -271.94,-1156.97 -413.81,-1734.04zm-1652.01 -3222.44c156.47,569.58 309.06,1140.22 457.78,1711.87l761.95 -198.21c-149.61,-575.11 -303.13,-1149.19 -460.54,-1722.21l-759.19 208.56zm-979.34 -3385.16c171.81,565.14 339.78,1131.44 503.89,1698.87l756.31 -218.74c-165.1,-570.85 -334.09,-1140.58 -506.94,-1709.13l-753.27 229.01zm-1070.51 -3357.44c187.03,560.29 370.25,1121.85 549.64,1684.63l750.13 -239.11c-180.48,-566.18 -364.8,-1131.13 -552.96,-1694.8l-746.81 249.29zm-565.91 -1658.12l743.39 -259.3c-195.72,-561.09 -395.25,-1120.85 -598.58,-1679.23l-739.79 269.39c202.11,555.03 400.44,1111.42 594.98,1669.15zm-1113.18 -5253.11l-732.24 289.29c217.04,549.36 430.35,1100.19 639.9,1652.45l736.1 -279.31c-210.82,-555.6 -425.41,-1109.76 -643.76,-1662.43zm-1345.72 -3277.81l-729.5 296.37 675.39 1644.37 727.21 -301.94 -673.11 -1638.8zm-1328.19 -3343.35l-734 285.02 649.8 1654.65 731.8 -290.62 -647.6 -1649.05zm-2014.5 -3089.95l624.06 1664.53 736.23 -279.23 -621.94 -1658.9 -738.34 273.6zm-485.49 -3656.54l-742.5 262.11 598.16 1674.02 740.47 -267.78 -596.13 -1668.35zm-1171.2 -3401.52l-746.47 250.56 572.11 1683.09 744.54 -256.26 -570.18 -1677.39zm-1118.29 -3419.28l-750.27 238.95 545.93 1691.76 748.42 -244.68 -544.09 -1686.04zm-547.25 -1741.95l-752.13 233.04 -519.63 -1700.03 753.89 -227.29 517.87 1694.28zm-1529.54 -5146.61l-757.32 215.56 493.19 1707.89 755.65 -221.34 -491.52 -1702.11zm-958 -3467.61l-760.57 203.79 466.63 1715.33 759 -209.59 -465.06 -1709.53zm-904.09 -3482.05l-763.64 191.96 439.97 1722.37 762.15 -197.8 -438.48 -1716.53zm-1203.3 -1586.59l765.13 -185.94 -411.8 -1723.13 -766.53 180.09 413.2 1728.98zm-5793.08 -58042.54l-787.4 0 0 1771.65 787.4 0 0 -1771.65zm5350.78 52625.03l-769.23 168.18 386.32 1735.19 767.93 -174.05 -385.02 -1729.31zm-1153.5 -1623.15l770.53 -162.12 -358.14 -1735.08 -771.75 156.23 359.36 1740.97zm-1048.09 -5284.38l332.31 1746.33 772.95 -150.15 -331.18 -1740.43 -774.08 144.24zm142.54 -3685.88l-776.22 132.21 305.17 1751.28 775.19 -138.14 -304.15 -1745.35zm-1076.73 -1675.06l-277.97 -1755.8 778.18 -120.15 277.03 1749.86 -777.24 126.09zm-21.15 -5435.48l-779.95 108.07 250.7 1759.9 779.1 -114.02 -249.85 -1753.95zm-1247.61 -3471.24l223.37 1763.58 780.78 -101.92 -222.61 -1757.61 -781.53 95.96zm-216.1 -1819.3l-195.98 -1766.83 782.93 -83.82 195.31 1760.85 -782.26 89.8zm243.49 -5302.64l-784.09 72.09 169.53 1769.57 783.52 -78.08 -168.95 -1763.58zm-933.83 -1624.48l-143.04 -1771.91 785.09 -60.35 142.55 1765.91 -784.6 66.35zm518.13 -3525.13l-785.5 54.61 -116.51 -1773.85 785.9 -48.61 116.12 1767.84zm-1000.93 -3419.53l-89.96 -1775.39 786.54 -36.85 89.66 1769.39 -786.24 42.85zm560.17 -5278.58l-787 25.07 63.4 1776.54 786.79 -31.09 -63.18 -1770.53zm-84.53 -3468l-787.29 13.3 36.81 1777.29 787.17 -19.31 -36.69 -1771.27zm-32.64 -3468.88l-787.4 1.52 10.22 1777.64 787.37 -7.54 -10.19 -1771.63zm0 -7086.61l-787.4 0 0 1771.65 787.4 0 0 -1771.65zm0 -3543.31l-787.4 0 0 1771.65 787.4 0 0 -1771.65zm0 -1771.65l0 -1771.65 -787.4 0 0 1771.65 787.4 0zm0 -5314.96l-787.4 0 0 1771.65 787.4 0 0 -1771.65zm0 -3543.31l-787.4 0 0 1771.65 787.4 0 0 -1771.65zm-787.4 -3543.31l0 1771.65 787.4 0 0 -1771.65 -787.4 0zm787.4 -3543.31l-787.4 0 0 1771.65 787.4 0 0 -1771.65zm-109252.4 268604.35l1771.65 0 0 -787.4 -1771.65 0 0 787.4zm79338.78 -244527.04l787.37 0 0 -1771.65 -787.37 0 0 1771.65zm0 -3543.31l787.37 0 0 -1771.65 -787.37 0 0 1771.65zm0 -3543.31l787.37 0 0 -1771.65 -787.37 0 0 1771.65zm0 -3543.31l787.37 0 0 -1771.65 -787.37 0 0 1771.65zm0 -3543.31l787.37 0 0 -1771.65 -787.37 0 0 1771.65zm0 -3543.31l787.37 0 0 -1771.65 -787.37 0 0 1771.65zm0 -3543.31l787.37 0 0 -1771.65 -787.37 0 0 1771.65zm0 -3543.31l787.37 0 0 -1771.65 -787.37 0 0 1771.65zm1021.02 51815.27l784.31 -69.74 -150.94 -1765.21 -784.76 64.42 151.39 1770.54zm3071.69 18267.5l-275.45 -1750.11 -778.24 119.78 276.28 1755.39 777.41 -125.06zm-1332.8 -3488.04l-251.75 -1759.07 779.83 -108.91 250.99 1753.78 -779.07 114.2zm-504.89 -3620.51l-227.16 -1762.42 781.28 -98.01 226.48 1757.12 -780.59 103.31zm-454.3 -3627.2l-202.53 -1765.42 782.57 -87.09 201.92 1760.11 -781.96 92.4zm-403.61 -3633.19l-177.86 -1768.07 783.71 -76.15 177.33 1762.76 -783.18 81.47zm-693.83 -7802.29l-124.89 -1772.6 785.64 -52.68 124.52 1767.28 -785.26 58zm-259.3 -3908.06l-98.36 -1774.27 786.34 -40.92 98.06 1768.94 -786.04 46.25zm-200.81 -3911.5l-71.81 -1775.54 786.86 -29.15 71.59 1770.2 -786.65 34.49zm-142.28 -3914.06l-45.24 -1776.43 787.21 -17.37 45.1 1771.08 -787.07 22.72zm-83.71 -3915.76l-18.66 -1776.9 787.38 -5.6 18.6 1771.56 -787.33 10.94zm-25.12 -3916.57l7.93 -1776.98 787.37 6.19 -7.9 1771.64 -787.4 -0.84zm8614.69 66887.74l-446.26 -1720.05 762.83 -195.15 444.92 1714.88 -761.5 200.33zm-905.32 -3541.67l-422.2 -1726.11 765.48 -184.48 420.93 1720.92 -764.22 189.67zm-855.78 -3553.96l-398.06 -1731.84 767.99 -173.78 396.86 1726.63 -766.79 178.99zm-806.08 -3565.56l-373.84 -1737.23 770.33 -163.04 372.72 1732 -769.21 168.26zm-756.22 -3576.47l-349.55 -1742.28 772.54 -152.27 348.5 1737.04 -771.49 157.51zm-706.21 -3586.68l-325.19 -1746.99 774.59 -141.46 324.21 1741.74 -773.61 146.72zm-656.06 -3596.19l-300.77 -1751.36 776.49 -130.63 299.86 1746.09 -775.58 135.91zm12393.93 45810.24l-611.98 -1668.29 740.15 -268.67 610.14 1663.28 -738.31 273.68zm-1246.61 -3436.42l-588.63 -1676.67 743.83 -258.3 586.85 1671.63 -742.06 263.34zm-1198.5 -3453.48l-565.16 -1684.73 747.36 -247.89 563.46 1679.66 -745.66 252.96zm-1150.17 -3469.89l-541.58 -1692.46 750.75 -237.43 539.95 1687.37 -749.12 242.52zm-1101.61 -3485.61l-517.9 -1699.85 753.99 -226.93 516.34 1694.74 -752.43 232.04zm-1052.84 -3500.65l-494.11 -1706.92 757.09 -216.38 492.63 1701.79 -755.6 221.51zm-245.24 -3725.94l-468.81 -1708.5 -760.04 205.79 470.23 1713.65 758.62 -210.94zm7289.43 24490.66l-635.21 -1659.59 736.33 -278.97 633.3 1654.59 -734.42 283.96zm8641.23 28006.72c-95.19,-582.84 -195.48,-1164.83 -300.87,-1745.92l774.76 -140.5c106.2,585.61 207.28,1172.13 303.21,1759.5l-777.11 126.92zm-662.69 -3638.3c-116.43,-578.97 -237.91,-1156.91 -364.46,-1733.76l769.11 -168.72c127.53,581.33 249.96,1163.78 367.29,1747.25l-771.95 155.23zm-795.18 -3611.66c-137.5,-574.33 -280.02,-1147.45 -427.56,-1719.29l762.44 -196.7c148.68,576.28 292.31,1153.86 430.88,1732.67l-765.76 183.33zm-926.6 -3580.19c-158.39,-568.93 -321.76,-1136.45 -490.08,-1702.52l754.74 -224.43c169.63,570.47 334.27,1142.41 493.9,1715.76l-758.56 211.19zm-1056.79 -3543.95c-179.07,-562.76 -363.06,-1123.94 -551.96,-1683.48l746.04 -251.85c190.36,563.89 375.79,1129.44 556.25,1696.57l-750.33 238.76zm-1185.56 -3502.97c-199.52,-555.84 -403.89,-1109.93 -613.1,-1662.19l736.33 -278.94c210.84,556.56 416.8,1114.95 617.87,1675.12l-741.11 266.01zm-581.86 -3750.23c-221.4,-552.44 -447.62,-1102.94 -678.66,-1651.43l-725.65 305.66c229.25,544.25 453.73,1090.5 673.42,1638.68l730.89 -292.91zm-2090.47 -2979.15l730.38 -294.19 -656.34 -1645.59 -732.36 289.22 658.32 1650.56zm3236.56 75864.85c203.92,-559.13 402.94,-1120.04 597.04,-1682.66l-744.35 -256.8c-192.6,558.28 -390.08,1114.85 -592.43,1669.67l739.74 269.78zm1212.76 -3524.09c183.35,-566.21 361.75,-1134.02 535.16,-1703.35l-753.24 -229.43c-172.07,564.94 -349.09,1128.36 -531.03,1690.2l749.1 242.58zm1083.2 -3566.05c162.54,-572.53 320.07,-1146.48 472.57,-1721.76l-761.11 -201.76c-151.32,570.85 -307.63,1140.36 -468.92,1708.47l757.47 215.05zm187.37 -3790.47c140.43,-573.63 275.83,-1148.47 406.19,-1724.46l767.98 173.81c-131.38,580.48 -267.83,1159.79 -409.35,1737.88l-764.82 -187.23zm1584.73 -3448.4c120.3,-582.87 235.5,-1166.78 345.58,-1751.67l-773.81 -145.64c-109.23,580.37 -223.54,1159.78 -342.92,1738.15l771.15 159.16zm686.53 -3663.15c98.93,-586.88 192.72,-1174.61 281.35,-1763.13l-778.62 -117.27c-87.95,583.98 -181.02,1167.17 -279.18,1749.52l776.45 130.88zm-228.47 -3788.22c76.82,-585.54 148.52,-1171.75 215.07,-1758.55l782.39 88.74c-67.08,591.37 -139.33,1182.13 -216.75,1772.23l-780.71 -102.43zm413.99 -3674.91c55.38,-587.96 105.61,-1176.39 150.69,-1765.24l785.1 60.1c-45.43,593.42 -96.05,1186.43 -151.85,1778.97l-783.93 -73.83zm279.45 -3687.59c33.86,-589.59 62.56,-1179.47 86.09,-1769.56l786.78 31.37c-23.72,594.69 -52.63,1189.15 -86.76,1783.33l-786.11 -45.15zm144.53 -3695.33c12.3,-590.43 19.42,-1180.96 21.38,-1771.52l787.4 2.61c-1.97,595.15 -9.15,1190.28 -21.54,1785.31l-787.23 -16.39zm9.43 -3698.15c-9.28,-590.49 -23.74,-1180.89 -43.36,-1771.12l786.97 -26.16c19.77,594.83 34.34,1189.82 43.69,1784.9l-787.3 12.38zm-125.69 -3696.02c-30.85,-589.76 -66.87,-1179.23 -108.04,-1768.35l785.48 -54.89c41.49,593.71 77.79,1187.77 108.88,1782.11l-786.33 41.13zm523.65 -3758.8c-52.78,-592.81 -110.76,-1185.15 -173.91,-1776.94l-782.96 83.56c62.67,587.23 120.19,1174.99 172.57,1763.23l784.3 -69.84zm-1179.55 -3607.14c-73.83,-585.93 -152.8,-1171.2 -236.88,-1755.75l779.38 -112.11c84.74,589.09 164.31,1178.92 238.72,1769.41l-781.22 98.45zm-28496.07 84976.47c422.03,-419.65 840.38,-842.98 1255,-1269.94l-564.88 -548.55c-411.42,423.67 -826.54,843.73 -1245.31,1260.14l555.19 558.35zm2594.35 -2675.7c406.42,-434.78 809.02,-873.11 1207.77,-1314.94l-584.55 -527.55c-395.67,438.42 -795.16,873.37 -1198.44,1304.8l575.22 537.7zm2494.86 -2768.7c390.26,-449.34 776.58,-902.09 1158.92,-1358.2l-603.43 -505.83c-379.39,452.58 -762.72,901.83 -1149.97,1347.71l594.48 516.32zm1779.09 -3352.26c370.7,-459.72 737.37,-922.68 1099.97,-1388.82l621.51 483.45c-365.42,469.77 -734.94,936.33 -1108.52,1399.63l-612.95 -494.26zm14965.75 -25400.69l729.39 296.63c224.21,-551.31 443.59,-1104.57 658.11,-1659.72l-734.47 -283.82c-212.87,550.87 -430.56,1099.85 -653.03,1646.91zm-12066.77 22951.46c356.41,-476.64 708.64,-956.39 1056.65,-1439.19l-638.76 -460.43c-345.33,479.08 -694.83,955.13 -1048.49,1428.09l630.6 471.53zm1529.55 -3473.22c336.14,-485.57 668.03,-974.06 995.61,-1465.44l655.15 436.78c-330.14,495.2 -664.6,987.5 -1003.36,1476.84l-647.41 -448.18zm2712.39 -2654.38c320.65,-501.39 636.91,-1005.58 948.74,-1512.51l-670.68 -412.55c-309.42,503.02 -623.23,1003.31 -941.41,1500.83l663.35 424.23zm1950.25 -3175.93l-678.41 -399.71c299.78,-508.81 595.11,-1020.24 885.94,-1534.23l685.3 387.77c-293.09,517.98 -590.72,1033.39 -892.84,1546.17zm1832.91 -3245.07c283.19,-523.47 561.78,-1049.41 835.76,-1577.75l-699.01 -362.47c-271.86,524.26 -548.3,1046.14 -829.3,1565.57l692.56 374.65zm1007.35 -3658.96c261.83,-529.35 519.03,-1060.98 771.55,-1594.83l711.79 336.69c-254.49,538 -513.69,1073.77 -777.56,1607.23l-705.78 -349.1zm2296.84 -3021.15c244.2,-542.75 483.65,-1087.63 718.31,-1634.57l-723.61 -310.46c-232.85,542.72 -470.45,1083.39 -712.76,1621.95l718.06 323.08zm-35435.04 42337.66c491.26,-335.98 979.56,-676.24 1464.87,-1020.76l-455.81 -642.06c-481.56,341.86 -966.09,679.5 -1453.56,1012.88l444.5 649.94zm3037.35 -2159.76c478.65,-353.7 954.2,-711.58 1426.59,-1073.6l-478.96 -624.98c-468.74,359.23 -940.62,714.35 -1415.58,1065.31l467.95 633.27zm2465.64 -2885.04c461.82,-368.09 920.41,-740.2 1375.71,-1116.32l501.48 607.06c-458.85,379.04 -921,754.06 -1386.42,1125.01l-490.77 -615.75zm3362.3 -1760.04c451.55,-387.71 899.69,-779.36 1344.39,-1174.91l-523.32 -588.33c-441.26,392.5 -885.95,781.13 -1334.01,1165.84l512.94 597.41zm2782.81 -2479.11c437.08,-403.94 870.62,-811.71 1300.57,-1223.24l-544.47 -568.82c-426.62,408.35 -856.81,812.97 -1290.52,1213.8l534.43 578.27zm-14762.32 11331.28c503.2,-317.8 1003.61,-640 1501.18,-966.56l-432.05 -658.28c-493.72,324.04 -990.27,643.75 -1489.59,959.1l420.46 665.74zm-20060.49 9781.26c560.28,-200.74 1118.79,-406.39 1675.48,-616.9l-278.52 -736.5c-552.39,208.89 -1106.59,412.95 -1662.54,612.14l265.59 741.26zm3484.98 -1320.96c552.57,-221.08 1103.2,-446.99 1651.82,-677.7l-305.24 -725.83c-544.39,228.94 -1090.76,453.1 -1639.07,672.47l292.49 731.06zm3434.39 -1447.4c544.13,-241.12 1086.13,-487 1625.96,-737.6l-331.56 -714.19c-535.65,248.67 -1073.48,492.65 -1613.4,731.91l319 719.89zm3379.22 -1571.91c534.95,-260.84 1067.61,-526.35 1597.92,-796.52l-357.43 -701.6c-526.21,268.07 -1054.76,531.54 -1585.59,790.36l345.09 707.76zm3319.53 -1694.32c525.07,-280.21 1047.67,-565.01 1567.75,-854.36l-382.82 -688.08c-516.07,287.13 -1034.63,569.72 -1555.65,847.77l370.72 694.67zm3255.41 -1814.47c514.48,-299.2 1026.33,-602.91 1535.49,-911.07l-407.7 -673.63c-505.23,305.79 -1013.13,607.15 -1523.64,904.04l395.85 680.66zm-53456.65 13802.39c595.02,12.74 1190.14,20.26 1785.3,22.57l3.06 -787.39c-590.56,-2.3 -1181.09,-9.77 -1771.51,-22.4l-16.85 787.22zm3726.91 11.65c595.09,-9.01 1190.09,-23.24 1784.93,-42.67l-25.7 -786.98c-590.25,19.28 -1180.65,33.39 -1771.15,42.33l11.93 787.31zm3724.85 -124.52c594.36,-30.75 1188.44,-66.7 1782.18,-107.85l-54.44 -785.52c-589.15,40.83 -1178.65,76.5 -1768.42,107.02l40.68 786.35zm3717.81 -260.53c592.84,-52.44 1185.21,-110.08 1777.05,-172.89l-83.11 -783c-587.26,62.33 -1175.06,119.52 -1763.33,171.56l69.39 784.34zm3705.81 -396.19c590.53,-74.07 1180.4,-153.31 1769.54,-237.7l-111.66 -779.44c-584.59,83.74 -1169.91,162.37 -1755.88,235.87l98 781.28zm3688.87 -531.32c587.43,-95.59 1174.01,-196.33 1759.68,-302.19l-140.06 -774.84c-581.15,105.04 -1163.2,205 -1746.09,299.86l126.48 777.18zm3666.99 -665.73c583.55,-117 1166.06,-239.09 1747.46,-366.28l-168.28 -769.21c-576.92,126.21 -1154.93,247.37 -1733.97,363.46l154.78 772.04zm3640.22 -799.27c578.88,-138.24 1156.54,-281.54 1732.91,-429.88l-196.27 -762.55c-571.92,147.2 -1145.12,289.39 -1719.54,426.56l182.89 765.87zm3608.59 -931.73c573.44,-159.29 1145.48,-323.6 1716.05,-492.91l-224 -754.87c-566.16,168 -1133.78,331.04 -1702.8,489.1l210.75 758.68zm3572.14 -1062.95c567.24,-180.14 1132.89,-365.24 1696.89,-555.28l-251.42 -746.18c-559.65,188.57 -1120.94,372.24 -1683.8,550.99l238.33 750.47zm-77326.69 4760.76l0 -787.4 -1771.65 0 0 787.4 1771.65 0zm1771.65 0l1771.65 0 0 -787.4 -1771.65 0 0 787.4zm3543.31 0l1771.65 0 0 -787.4 -1771.65 0 0 787.4zm3543.31 0l1771.65 0 0 -787.4 -1771.65 0 0 787.4zm5314.96 0l0 -787.4 -1771.65 0 0 787.4 1771.65 0zm3543.31 0l0 -787.4 -1771.65 0 0 787.4 1771.65 0zm3543.31 0l0 -787.4 -1771.65 0 0 787.4 1771.65 0zm1771.65 0l1771.65 0 0 -787.4 -1771.65 0 0 787.4zm3543.31 0l1771.65 0 0 -787.4 -1771.65 0 0 787.4zm3543.31 0l1771.65 0 0 -787.4 -1771.65 0 0 787.4zm3543.31 0l1771.65 0 0 -787.4 -1771.65 0 0 787.4zm3543.31 0l1771.65 0 0 -787.4 -1771.65 0 0 787.4zm-115945.2 28346.46l0.32 0 61574.93 0 2506.05 0 25684.26 14566.93 35431.61 0c2979.44,0 5958.18,-91.91 8931.95,-275.59l17.02 275.59 1779.86 0 -29.3 -395.62c588.94,-43.61 1177.61,-90.82 1765.98,-141.63l46.4 537.26 1856.58 0 -70.14 -707.28c587.67,-58.28 1174.98,-120.16 1761.9,-185.62l87.29 782.55c-340.56,37.98 -681.24,74.77 -1022.06,110.35l67980.24 0 0 0.04c0.26,-0.04 0.52,-0.09 0.78,-0.09 36225.09,-34.23 70618.55,-16692.99 92981.96,-45195.75 7242.72,-9231.04 18923.61,-13805.72 30508.93,-11948.45 17423.67,2793.22 34911.79,-4612.99 45029.93,-19070.16 10118.13,-14457.16 11087.81,-33424.14 2496.81,-48837.8 -8591,-15413.66 -25232.64,-24564.75 -42850.44,-23563 -14287.79,812.48 -27714.32,-6863.65 -34262.62,-19588.33 -6548.3,-12724.68 -4990.5,-28111.95 3975.24,-39266 6775.64,-8429.4 11496.3,-18320.17 13788.34,-28889.5 2337.85,-10780.54 9007.45,-20124.69 18443.17,-25838.95 15701.88,-9509.05 24258.88,-27433.42 21779.72,-45622.01 -2479.16,-18188.59 -15521.17,-33168.95 -33195.32,-38128.81 -16198.11,-4545.54 -27392.78,-19314.12 -27392.78,-36137.81 0,-2147.97 373.99,-4279.54 1105.21,-6299.21l-15989.94 0.04c731.22,2019.7 1105.2,4151.23 1105.2,6299.17 0,23000.07 15304.51,43190.54 37449.25,49404.84 12387.01,3476.14 21527.57,13975.19 23265.09,26722.75 1737.53,12747.56 -4259.69,25309.94 -15264.42,31974.41 -12673.46,7675.04 -21631.66,20225.51 -24771.71,34705.26 -1838.81,8479.35 -5626,16414.32 -11061.83,23176.89 -12376.63,15397.44 -14527.06,36638.57 -5487.56,54204.16 9039.49,17565.58 27573.95,28161.98 47297.23,27040.41 12347.52,-702.08 24010.89,5711.5 30031.93,16514.24 6021.04,10802.74 5341.44,24095.83 -1749.91,34228.2 -7091.34,10132.37 -19347.98,15323.05 -31559.43,13365.41 -16530.28,-2650 -33196.91,3877.28 -43531.04,17048.4 -19774.28,25202.83 -50143.4,39922.13 -82177.83,39922.13l-19573.93 0 -954.68 458.09 -338.06 -711.14c69644.06,-33107.33 101151.87,-114964.56 71679.29,-186223.36 -10932.91,-26433.17 -16559.49,-54758.37 -16559.49,-83362.9l0 -58087.04 -14566.93 -23622.05 0 -8490.98 -13779.53 0 0 12398.08 14566.93 23622.05 0 19685.04 -14173.23 17803.92 0 16690.98c0,32270.46 6347.69,64225.77 18681.69,94046.48 14921.71,36077.7 10852.98,77222.22 -10845.79,109678.3 -21698.77,32456.08 -58164.55,51941.3 -97205.98,51941.3l-55190.06 0 23601.75 13385.83 31588.31 0 0 787.4 -31796.06 0 -25684.26 -14566.93 -15748.04 0 -1574.8 0 0 -787.4 0 -13779.53 0 -787.4 0 -15538.45c-6473.22,-3043.91 -10610.46,-9545.38 -10629.48,-16695.58l-0.76 0 0.01 -40994.31 -13779.53 0 0 60737.37 -0.01 0 0 286.25 0 434.77 0 1140.03 -16241.55 0c-3020.4,6720.37 -9798.74,11417.31 -17616.76,11417.31l-9052.22 0 -2367.94 0 -9052.22 0c-2202.66,0 -4322.42,-373.73 -6299.21,-1059.72l0 14839.25 33070.86 0 348.55 0 1226.25 0 0 14566.92zm87.59 787.4l-87.59 0 0 0.01 -1059.59 0 0 0.09 -16933.68 0 0 -0.09 -97754.76 0c-8032.44,0 -14832,5108.32 -17404.04,12219.73 -799.42,2210.3 -1022.51,3901.15 -1099.9,6284.2l0 23622.05 -787.4 0 0 -23622.05c-5.55,-2204.42 365.19,-4323.82 1049.8,-6299.21l-14829.33 0 0 29921.26 -787.4 0 0 -29921.26 0 -1574.8 787.4 0 15454.1 0c3020.39,-6720.37 9798.74,-11417.32 17616.77,-11417.32l28346.46 0 0 -13779.53 -36220.47 0 -1418.56 0 -156.25 0 0 -17046.83c-5874.13,-3313.92 -9860.65,-9611.34 -9842.52,-16811.45l0 -10236.21 -13779.53 0 0 16535.43 0 492.48 0 1082.32 -14566.93 0 0 82677.17 -787.4 0 0 -82677.17 0 -787.4 0 -787.4 0 -33858.27 0 -0 0 -1574.8 0 -348934.22 -0.01 0 0 -13499.89 0.53 0c8.61,-12831.43 5109.39,-25135.44 14183.21,-34209.26 9062.84,-9062.84 21348.11,-14162.02 34162.74,-14182.92l0 -0.49 79.05 0 59055.12 0 0 787.4 -59055.12 0c-12634.33,0 -24751.19,5018.97 -33685.01,13952.79 -8933.82,8933.82 -13952.79,21050.68 -13952.79,33685.01l-0.32 0 0 132283.46 13779.53 0 0 -132310 0.48 0c7.02,-8970.19 3573.3,-17571.47 9916.69,-23914.87 6345.33,-6345.34 14949.94,-9911.89 23923.1,-9916.74l0 -0.11 18.31 0 19685.04 0 0 787.4 -19685.04 0c-8770.94,0 -17182.65,3484.24 -23384.63,9686.23 -6201.99,6201.99 -9686.23,14613.69 -9686.23,23384.63l-0.32 0 0 132283.46 0 1574.8 -787.4 0 -13779.53 0 0 150196.86 13779.53 0 0 -7086.61 -0.01 0 0 -90354.33 0 -1574.8 787.4 0 15454.11 0c3020.39,-6720.37 9798.74,-11417.32 17616.77,-11417.32l1444.59 0 17583.2 0 1444.59 0c2202.68,0 4322.45,373.74 6299.27,1059.74l0 -14839.26 -25590.55 0 0 -0.01 -7480.31 0 -1574.8 0 0 -787.4 0 -15464.22c-6724.7,-3020.84 -11436.97,-9780.19 -11417.27,-17606.66l0 -1256.59 -0.06 0 0 -124727.65 0.31 0c0,-5116.38 2032.47,-10023.21 5650.3,-13641.04 3592.91,-3592.91 8457.17,-5621.86 13535.4,-5649.64l0 -0.66 105.64 0 59055.12 0 0 787.4 -59055.12 0c-4907.55,0 -9614.1,1949.52 -13084.26,5419.68 -3470.16,3470.16 -5419.68,8176.71 -5419.68,13084.26l-0.31 0 0 124435.89 0.06 0 0 1548.35c77.39,2383.05 300.48,4073.91 1099.9,6284.2 2572.04,7111.41 9371.59,12219.73 17404.04,12219.73l11148.18 0 271.98 0 96453.74 0c8032.44,0 14832,-5108.32 17404.04,-12219.73 799.42,-2210.3 1022.51,-3901.15 1099.9,-6284.2l0 -1548.35 0.05 0 0 -51994.94 0 -4.89 0 -22.62 0.14 -0c7.28,-12833.23 5108.28,-25139.27 14183.27,-34214.27 9074.6,-9074.6 21379.98,-14175.51 34212.61,-14183.23l0 -0.18 29.17 0 48819.22 0 0 -0.01 1574.8 0 0 0.01 69399.89 0 -0 -0.01c2657.89,0 5136.4,-1340.88 6590.72,-3565.59 6253.56,-9566.26 16911.18,-15332.05 28340.1,-15332.05 11428.93,0 22086.54,5765.79 28340.1,15332.05 1454.31,2224.71 3932.83,3565.59 6590.72,3565.59l75305.4 0c19419.75,0 36221.39,-13517.44 40379.74,-32486.75 4158.35,-18969.31 -5447.82,-38275.73 -23086.72,-46399.53 -17638.89,-8123.8 -38554.47,-2874.52 -50266.92,12615.78 -11300.51,14945.66 -28948.07,23734.56 -47682.98,23750.44l0 0.37 -50.82 0 -36418.28 0 0 -787.4 36418.28 0c18507.06,0 35943.81,-8675.95 47105.73,-23438.31 11935.54,-15785.36 33249.52,-21134.62 51224.39,-12856.08 17974.87,8278.54 27764.02,27952.7 23526.46,47283.33 -4237.56,19330.63 -21359.23,33105.55 -41148.88,33105.55l-69291.34 0 0 13779.53 15354.33 0 0 787.4 -22443.24 0c-4.58,393.87 -16.03,787.63 -34.35,1181.1l-786.55 -36.62c48.29,-1037.06 47.71,-2075.81 -1.72,-3112.89l788.27 -0.09c18.32,393.47 29.77,787.23 34.35,1181.1l5514.1 0 0 -13779.53 -4867.87 0c-2686.87,0 -5188.27,-1370.07 -6635.04,-3634.16 -6076.46,-9509.17 -16582.33,-15263.48 -27867.17,-15263.48 -11284.85,0 -21790.71,5754.3 -27867.17,15263.48 -1403.72,2196.71 -3800.24,3551.74 -6395.68,3630.45l0.06 0.08 -3.59 0c-78.44,2.35 -157.05,3.63 -235.83,3.63l-1.97 -3.62 -69826.53 2.11 0 13778.87 70475.18 0c0.02,-23.96 0.04,-38.5 0.07,-40.29 4.89,-379.71 16.17,-759.31 33.83,-1138.64l786.55 36.62c-48.29,1037.11 -47.72,2075.93 1.72,3112.98l-788.28 0c-18.32,-393.47 -29.77,-787.23 -34.35,-1181.1l0.01 -2.17 -5514.11 0 0 13781.7 4867.87 0c2686.87,0 5188.26,1370.07 6635.04,3634.16 2583.74,4043.36 6016.42,7476.04 10059.78,10059.78 2264.09,1446.78 3634.16,3948.17 3634.16,6635.04l0 14933.65 -14566.93 23622.05 0 58087.04c0,36142.91 7109.41,71932.86 20923.45,105331.95 11153.6,26967.17 8112.33,57721.66 -8106.95,81981.76 -16219.28,24260.1 -43476.53,38824.81 -72659.02,38824.81l-66929.13 0c-2147.97,0 -4279.54,-373.99 -6299.21,-1105.21l0 14884.74 23228.35 0 0 787.4 -23228.35 0 0 13779.53 15748.03 0 0 -393.7 57480.31 0c38515.63,0 74490.28,-19222.79 95896.81,-51241.75 21406.53,-32018.96 25420.46,-72609.35 10699.71,-108201.15 -12412.94,-30011.56 -18801.25,-62171.38 -18801.25,-94648.37l0 -16690.98 -14173.23 -17803.92 0 -19685.04 14566.93 -23622.05 0 -19486.98c-393.87,-4.58 -787.63,-16.04 -1181.1,-34.35l36.62 -786.55c1024.9,47.72 2051.46,47.72 3076.36,0l36.62 786.55c-393.47,18.32 -787.23,29.77 -1181.1,34.35l0 5514.1 13779.53 0 0 -4867.87c0,-2686.87 1370.07,-5188.26 3634.16,-6635.04 4043.36,-2583.74 7476.04,-6016.42 10059.78,-10059.78 1446.77,-2264.09 3948.17,-3634.16 6635.04,-3634.16l25930.86 0 0 787.4 -1549.35 0c5025.43,1514.85 9171.07,5092.67 11404.6,9842.52l17297.37 0c2233.52,-4749.85 6379.75,-8325.76 11416.81,-9842.52l-1364.71 0 0 -787.4 12598.43 0c33038.75,0 61642.32,-22952.46 68799.15,-55206.74 7156.83,-32254.28 -9054.56,-65150.64 -38992.69,-79124.44 -29938.13,-13973.81 -65565.11,-5273.32 -85692.41,20927.11 -6105.83,7948.26 -15556.47,12609.26 -25578.17,12616.5l0 0.17 -23.38 0 -46858.95 0 0 -787.4 46858.95 0c9785.74,0 19015.58,-4548.51 24977.13,-12308.96 20352.19,-26493.18 56377.24,-35290.87 86649.87,-21160.94 30272.64,14129.94 46665.17,47393.85 39428.37,80008.52 -7236.8,32614.67 -36159.96,55823.58 -69567.86,55823.58l-5885.9 0c-0.03,0.06 -0.03,0.14 -0.13,0.14 -4673.16,18.63 -9241.17,1883.11 -12546.97,5188.91 -3322.49,3322.49 -5189.05,7828.77 -5189.05,12527.48 0,16470.75 10959.83,30929.5 26818.12,35379.69 17976.27,5044.64 31241.23,20281.07 33762.76,38780.58 2521.54,18499.51 -6181.74,36730.28 -22152.03,46401.88 -9250.7,5602.22 -15789.53,14763.15 -18081.54,25332.31 -2317.94,10688.75 -7091.94,20691.28 -13944.14,29215.93 -8770.84,10911.57 -10294.76,25964.34 -3888.82,38412.39 6405.94,12448.06 19540.59,19957.31 33517.78,19162.49 17918.96,-1018.87 34845.07,8288.65 43582.93,23965.79 8737.85,15677.14 7751.6,34968.34 -2539.5,49672.63 -10291.09,14704.3 -28078.16,22237.11 -45799.67,19396.15 -11302.75,-1811.96 -22698.74,2651.13 -29764.81,11657.02 -22535.71,28722.35 -57019.18,45497.15 -93527.14,45497.15l-118820.16 0 -25684.26 -14566.93 -2298.3 0 -61487.67 0zm242479.98 -473031.78c14396,-12.17 27959.49,-6754.03 36660.52,-18224.88 637.83,-840.87 1299.21,-1663.61 1983.36,-2467.25l-599.56 -510.42c-693.74,814.89 -1364.38,1649.16 -2011.15,2501.81 -8560.02,11284.96 -21907.99,17913.63 -36072.18,17913.63l-20472.44 0 0 787.4 20472.44 0 39 0 0 -0.28zm-53984.57 -27952.47l-27559.06 0 0 787.4 27559.06 0 0 -787.4zm-204527.56 0l-27559.06 0 0 787.4 27559.06 0 0 -787.4zm125393.7 100391.53l0 2.17 -1574.8 0 0 -2.17 -13.78 0 0 -787.4 13.78 0 0 -13778.82 -48819.22 1.47c-12634.33,0 -24751.19,5018.97 -33685.01,13952.79 -8927.65,8927.65 -13945.88,21060.11 -13952.79,33685.01l0 47223.03 0 5218.06 -0.05 0 0 1102.19c7.06,2802.42 -592.86,5467.96 -1674.57,7874.02l15454.16 0 0 -57445.17 -0.1 0c0,-59.78 0.16,-4091.77 0.47,-4151.45 96.31,-18514.48 15098.87,-33535 33596.22,-33675.38l0 -3.57 31757.73 0 1574.8 0 0 787.4 0 13779.52 80708.98 0 0 -13781.7 -63385.83 0zm-15354.33 10435.24l11811.02 0 0 1968.5 -11811.02 0 0 -1968.5zm0 -3937.01l11811.02 0 0 1968.5 -11811.02 0 0 -1968.5zm0 -3937.01l11811.02 0 0 1968.5 -11811.02 0 0 -1968.5zm0 -3937.01l11811.02 0 0 1968.5 -11811.02 0 0 -1968.5zm0 -3937.01l11811.02 0 0 1968.5 -11811.02 0 0 -1968.5zm0 -3937.01l11811.02 0 0 1968.5 -11811.02 0 0 -1968.5zm0 -3937.01l11811.02 0 0 1968.5 -11811.02 0 0 -1968.5zm53740.15 -45472.44l-76377.95 0 0 -13779.53 0 -787.4 -1574.8 0 -40173.21 0 0 787.4 40173.21 0 0 13779.53 -67519.69 0 0 787.4 67519.69 0 1574.8 0 76377.95 0 0 -787.4zm-19685.04 -14566.93l-39370.08 0 0 -13779.53 59055.1 0 0 -787.4 -59055.1 0 -1574.8 0 -96062.99 0 0 787.4 96062.99 0 0 14566.93 0 0 1574.8 0 39370.08 0 0 -787.4zm-181299.21 -14566.93l-1771.65 0 0 787.4 1771.65 0 0 -787.4zm204527.55 0l-1771.65 0 0 787.4 1771.65 0 0 -787.4zm68897.83 14566.93l-1771.65 0 0 787.4 1771.65 0 0 -787.4zm-3543.31 0l-1771.65 0 0 787.4 1771.65 0 0 -787.4zm-3543.31 0l-1771.65 0 0 787.4 1771.65 0 0 -787.4zm-3543.31 0l-1771.65 0 0 787.4 1771.65 0 0 -787.4zm-3543.31 0l-1771.65 0 0 787.4 1771.65 0 0 -787.4zm-3543.31 0l-1771.65 0 0 787.4 1771.65 0 0 -787.4zm-3543.31 0l-1771.65 0 0 787.4 1771.65 0 0 -787.4zm-3543.31 0l-1771.65 0 0 787.4 1771.65 0 0 -787.4zm-3543.31 0l-1771.65 0 0 787.4 1771.65 0 0 -787.4zm-3543.31 0l-1771.65 0 0 787.4 1771.65 0 0 -787.4zm-3543.31 0l-1771.65 0 0 787.4 1771.65 0 0 -787.4zm-3543.31 0l-1771.65 0 0 787.4 1771.65 0 0 -787.4zm-3543.31 0l-1771.65 0 0 787.4 1771.65 0 0 -787.4zm-3543.31 0l-1771.65 0 0 787.4 1771.65 0 0 -787.4zm-3543.31 0l-1771.65 0 0 787.4 1771.65 0 0 -787.4zm-3543.31 0l-1771.65 0 0 787.4 1771.65 0 0 -787.4zm-3543.31 0l-1771.65 0 0 787.4 1771.65 0 0 -787.4zm-3543.31 0l-1771.65 0 0 787.4 1771.65 0 0 -787.4zm-3543.31 0l-1771.65 0 0 787.4 1771.65 0 0 -787.4zm-3543.31 0l-1771.65 0 0 787.4 1771.65 0 0 -787.4zm-3543.31 0l-1771.65 0 0 787.4 1771.65 0 0 -787.4zm-3543.31 0l-1771.65 0 0 787.4 1771.65 0 0 -787.4zm-3543.31 0l-1771.65 0 0 787.4 1771.65 0 0 -787.4zm-3543.31 0l-1771.65 0 0 787.4 1771.65 0 0 -787.4zm-3543.31 0l-1771.65 0 0 787.4 1771.65 0 0 -787.4zm58661.42 -14566.93l-1771.65 0 0 787.4 1771.65 0 0 -787.4zm-3543.31 0l-1771.65 0 0 787.4 1771.65 0 0 -787.4zm-3543.31 0l-1771.65 0 0 787.4 1771.65 0 0 -787.4zm-3543.31 0l-1771.65 0 0 787.4 1771.65 0 0 -787.4zm-3543.31 0l-1771.65 0 0 787.4 1771.65 0 0 -787.4zm-3543.31 0l-1771.65 0 0 787.4 1771.65 0 0 -787.4zm-3543.31 0l-1771.65 0 0 787.4 1771.65 0 0 -787.4zm-3543.31 0l-1771.65 0 0 787.4 1771.65 0 0 -787.4zm-3543.31 0l-1771.65 0 0 787.4 1771.65 0 0 -787.4zm-3543.31 0l-1771.65 0 0 787.4 1771.65 0 0 -787.4zm-3543.31 0l-1771.65 0 0 787.4 1771.65 0 0 -787.4zm-3543.31 0l-1771.65 0 0 787.4 1771.65 0 0 -787.4zm-23228.35 14566.93l-1771.65 0 0 787.4 1771.65 0 0 -787.4zm-103740.15 0l-1771.65 0 0 787.4 1771.65 0 0 -787.4zm-3543.31 0l-1771.65 0 0 787.4 1771.65 0 0 -787.4zm-3543.31 0l-1771.65 0 0 787.4 1771.65 0 0 -787.4zm-3543.31 0l-1771.65 0 0 787.4 1771.65 0 0 -787.4zm-3543.31 0l-1771.65 0 0 787.4 1771.65 0 0 -787.4zm-3543.31 0l-1771.65 0 0 787.4 1771.65 0 0 -787.4zm-3543.31 0l-1771.65 0 0 787.4 1771.65 0 0 -787.4zm-3543.31 0l-1771.65 0 0 787.4 1771.65 0 0 -787.4zm-3543.31 0l-1771.65 0 0 787.4 1771.65 0 0 -787.4zm-3543.31 0l-1771.65 0 0 787.4 1771.65 0 0 -787.4zm-3543.31 0l-1771.65 0 0 787.4 1771.65 0 0 -787.4zm-3543.31 0l-1771.65 0 0 787.4 1771.65 0 0 -787.4zm-3543.31 0l-1771.65 0 0 787.4 1771.65 0 0 -787.4zm-3543.31 0l-1771.65 0 0 787.4 1771.65 0 0 -787.4zm-3543.31 0l-1771.65 0 0 787.4 1771.65 0 0 -787.4zm-3543.31 0l-1771.65 0 0 787.4 1771.65 0 0 -787.4zm-3543.31 0l-1771.65 0 0 787.4 1771.65 0 0 -787.4zm-3543.31 0l-1771.65 0 0 787.4 1771.65 0 0 -787.4zm-3543.31 0l-1771.65 0 0 787.4 1771.65 0 0 -787.4zm-3543.31 0l-1771.65 0 0 787.4 1771.65 0 0 -787.4zm-3543.31 0l-1771.65 0 0 787.4 1771.65 0 0 -787.4zm-3543.31 0l-1771.65 0 0 787.4 1771.65 0 0 -787.4zm-3543.31 0l-1771.65 0 0 787.4 1771.65 0 0 -787.4zm-3543.31 0l-1771.65 0 0 787.4 1771.65 0 0 -787.4zm-3543.31 0l-1771.65 0 0 787.4 1771.65 0 0 -787.4zm-3543.31 0l-1771.65 0 0 787.4 1771.65 0 0 -787.4zm-3543.31 0l-1771.65 0 0 787.4 1771.65 0 0 -787.4zm-3543.31 0l-1771.65 0 0 787.4 1771.65 0 0 -787.4zm-3543.31 0l-1771.65 0 0 787.4 1771.65 0 0 -787.4zm-3543.31 0l-1771.65 0 0 787.4 1771.65 0 0 -787.4zm-3543.31 0l-1771.65 0 0 787.4 1771.65 0 0 -787.4zm-3543.31 0l-1771.65 0 0 787.4 1771.65 0 0 -787.4zm-3543.31 0l-1771.65 0 0 787.4 1771.65 0 0 -787.4zm-3543.31 0l-1771.65 0 0 787.4 1771.65 0 0 -787.4zm-3543.31 0l-1771.65 0 0 787.4 1771.65 0 0 -787.4zm81901.26 -14566.93l-1771.65 0 0 787.4 1771.65 0 0 -787.4zm-3543.31 0l-1771.65 0 0 787.4 1771.65 0 0 -787.4zm-3543.31 0l-1771.65 0 0 787.4 1771.65 0 0 -787.4zm-3543.31 0l-1771.65 0 0 787.4 1771.65 0 0 -787.4zm-3556.44 0l-1771.65 0 0 787.4 1771.65 0 0 -787.4zm-3541.67 0l-1771.65 0 0 787.4 1771.65 0 0 -787.4zm-3543.31 0l-1771.65 0 0 787.4 1771.65 0 0 -787.4zm-3543.31 0l-1771.65 0 0 787.4 1771.65 0 0 -787.4zm-3543.31 0l-1771.65 0 0 787.4 1771.65 0 0 -787.4zm-3543.31 0l-1771.65 0 0 787.4 1771.65 0 0 -787.4zm-3543.31 0l-1771.65 0 0 787.4 1771.65 0 0 -787.4zm-3543.31 0l-1771.65 0 0 787.4 1771.65 0 0 -787.4zm123031.5 2165.35l11811.02 0 0 1968.5 -11811.02 0 0 -1968.5zm0 3937.01l11811.02 0 0 1968.5 -11811.02 0 0 -1968.5zm0 3937.01l11811.02 0 0 1968.5 -11811.02 0 0 -1968.5zm0 3937.01l11811.02 0 0 1968.5 -11811.02 0 0 -1968.5zm0 3937.01l11811.02 0 0 1968.5 -11811.02 0 0 -1968.5zm0 3937.01l11811.02 0 0 1968.5 -11811.02 0 0 -1968.5zm0 3937.01l11811.02 0 0 1968.5 -11811.02 0 0 -1968.5zm109873.96 465076.24l-314.06 -722.06c-541.55,235.56 -1084.53,467.79 -1628.92,696.7l305.22 725.84c547.34,-230.16 1093.28,-463.66 1637.76,-700.49zm-8889.71 -389288.83l0 0 -0 -0 0 0zm3398.65 787.4l-2710 0 -116043.23 0c-8032.44,0 -14832.01,5108.33 -17404.04,12219.73 -799.41,2210.28 -1022.51,3901.15 -1099.9,6284.2l0 1548.35 -0.06 0 0 303766.61 0.31 0c0,4698.72 1866.56,9204.99 5189.05,12527.48 3322.5,3322.49 7828.77,5189.05 12527.48,5189.05l66929.13 0c28919.58,0 55931.27,-14433.49 72004.43,-38475.03 16073.17,-24041.54 19087.04,-54518.96 8033.92,-81243.19 -13853.51,-33494.51 -20983.23,-69386.72 -20983.23,-105632.89l0 -58310.3 14566.93 -23622.05 0 -14281.78c0,-2657.89 -1340.88,-5136.41 -3565.59,-6590.72 -3913.86,-2558.53 -7255.35,-5900.02 -9813.88,-9813.88 -1454.32,-2224.71 -3932.83,-3565.59 -6590.72,-3565.59l-1040.61 0zm-87257.24 -14566.93l-31519.21 0 -0.01 0.38c-18194.05,12.46 -32950.79,14716.87 -33047.32,32891.15 -0.27,50.66 -0.43,2963.46 -0.46,3879.24l0.09 0 0 57717.39 0 1574.8 -787.4 0 -16251.78 0c-3316.39,5867.72 -9627.59,9842.51 -16819.15,9842.51l-26771.6 0 0 13779.54 8979.44 0 0 0.01 24091.43 0 1574.8 0 0 787.4 0 15464.18c6724.73,3020.83 11437.03,9780.19 11417.32,17606.68 0,15616.8 0,69224.76 0,84841.56 5.55,2204.78 -365.32,4324.51 -1050.14,6300.18l14829.67 0 0 -14173.23 787.4 0 0 14173.23 0 1574.8 -787.4 0 -15454.53 0c-3020.61,6719.86 -9798.69,11416.35 -17616.34,11416.35 -6824.13,0 -13648.26,0 -20472.39,0 -2202.68,0 -4322.45,-373.74 -6299.27,-1059.74l0 14840.22 8979.44 0 0 0.01 24091.43 0 1574.8 0 0 787.4 0 15464.21c6724.7,3020.84 11436.97,9780.19 11417.27,17606.66l0 8267.72 0 37034.33 0 79.65 0 1468.7c5.55,2204.43 -365.2,4323.82 -1049.8,6299.22l14829.38 0 0 -530.5 0.01 0 0 -60493.12 0 -1574.8 787.4 0 13779.53 0 0 -148622.06 -13779.53 0 0 14173.23 -787.4 0 0 -14173.23 0 -1574.8 787.4 0 13779.53 0 0 -111140.59 0.06 0 0 -1457.83c-26.76,-10629.31 8674.07,-19291.34 19291.34,-19291.34l31496 0 0 -13779.52zm-92125.98 386023.62l-33070.86 0 -1574.8 0 0 -787.4 0 -15464.19c-6724.73,-3020.83 -11437.03,-9780.19 -11417.32,-17606.68l0 -1468.7 0 -79.65 0 -45302.04c-5.55,-2204.42 365.19,-4323.82 1049.8,-6299.21l-14829.33 0 0 21809.79 0 15829.24 0 21809.79 0 1574.8 -787.4 0 -15454.16 0c-3020.4,6720.37 -9798.74,11417.31 -17616.76,11417.31l-9052.22 0 -2367.94 0 -9052.22 0c-2799.56,0 -5465.81,-602.36 -7874.02,-1684.11l0 15463.66 36220.47 0 1574.8 0 0 787.4 0 13779.53 84251.96 0 0 -13779.53zm-160433.07 -59448.82l1968.5 0 0 11811.02 -1968.5 0 0 -11811.02zm3937.02 0l1968.5 0 0 11811.02 -1968.5 0 0 -11811.02zm3937.02 0l1968.5 0 0 11811.02 -1968.5 0 0 -11811.02zm3937.02 0l1968.5 0 0 11811.02 -1968.5 0 0 -11811.02zm3937.02 0l1968.5 0 0 11811.02 -1968.5 0 0 -11811.02zm3937.02 0l1968.5 0 0 11811.02 -1968.5 0 0 -11811.02zm3937.02 0l1968.5 0 0 11811.02 -1968.5 0 0 -11811.02zm76181.06 -163385.84l787.4 0 0 1771.65 -787.4 0 0 -1771.65zm0 3543.31l787.4 0 0 1771.65 -787.4 0 0 -1771.65zm0 3543.31l787.4 0 0 1771.65 -787.4 0 0 -1771.65zm0 3543.31l787.4 0 0 1771.65 -787.4 0 0 -1771.65zm0 3543.31l787.4 0 0 1771.65 -787.4 0 0 -1771.65zm0 3543.31l787.4 0 0 1771.65 -787.4 0 0 -1771.65zm0 3543.31l787.4 0 0 1771.65 -787.4 0 0 -1771.65zm0 3543.31l787.4 0 0 1771.65 -787.4 0 0 -1771.65zm0 3543.31l787.4 0 0 1771.65 -787.4 0 0 -1771.65zm0 3543.31l787.4 0 0 1771.65 -787.4 0 0 -1771.65zm0 3543.31l787.4 0 0 1771.65 -787.4 0 0 -1771.65zm0 3543.31l787.4 0 0 1771.65 -787.4 0 0 -1771.65zm0 3543.31l787.4 0 0 1771.65 -787.4 0 0 -1771.65zm0 3543.31l787.4 0 0 1771.65 -787.4 0 0 -1771.65zm0 3543.31l787.4 0 0 1771.65 -787.4 0 0 -1771.65zm0 3543.31l787.4 0 0 1771.65 -787.4 0 0 -1771.65zm0 3543.31l787.4 0 0 1771.65 -787.4 0 0 -1771.65zm0 3543.31l787.4 0 0 1771.65 -787.4 0 0 -1771.65zm0 3543.31l787.4 0 0 1771.65 -787.4 0 0 -1771.65zm0 3543.31l787.4 0 0 15748.04 -787.4 0 0 -15748.04zm87401.58 -67322.84l787.4 0 0 1771.65 -787.4 0 0 -1771.65zm0 3543.3l787.4 0 0 1771.65 -787.4 0 0 -1771.65zm0 3543.3l787.4 0 0 1771.65 -787.4 0 0 -1771.65zm0 3543.3l787.4 0 0 1771.65 -787.4 0 0 -1771.65zm0 3543.3l787.4 0 0 1771.65 -787.4 0 0 -1771.65zm0 3543.3l787.4 0 0 1771.65 -787.4 0 0 -1771.65zm0 3543.3l787.4 0 0 1771.65 -787.4 0 0 -1771.65zm0 3543.3l787.4 0 0 1771.65 -787.4 0 0 -1771.65zm0 3543.3l787.4 0 0 1771.65 -787.4 0 0 -1771.65zm0 3543.3l787.4 0 0 1771.65 -787.4 0 0 -1771.65zm0 3543.3l787.4 0 0 1771.65 -787.4 0 0 -1771.65zm0 3543.3l787.4 0 0 1771.65 -787.4 0 0 -1771.65zm0 3543.3l787.4 0 0 1771.65 -787.4 0 0 -1771.65zm0 3543.3l787.4 0 0 1771.65 -787.4 0 0 -1771.65zm0 3543.3l787.4 0 0 1771.65 -787.4 0 0 -1771.65zm0 3543.3l787.4 0 0 1771.65 -787.4 0 0 -1771.65zm0 3543.3l787.4 0 0 1771.65 -787.4 0 0 -1771.65zm0 3543.3l787.4 0 0 1771.65 -787.4 0 0 -1771.65zm0 3543.3l787.4 0 0 1771.65 -787.4 0 0 -1771.65zm-188582.69 19291.48l0 76771.66 13779.53 0 0 -24015.75 0 -1574.8 787.4 0 15454.1 0c3020.39,-6720.38 9798.74,-11417.33 17616.77,-11417.33l1444.59 0 17583.2 0 1444.59 0c2202.68,0 4322.45,373.74 6299.27,1059.74l0 -14839.26 -25590.55 0 0 -0.01 -7480.31 0 -1574.8 0 0 -787.4 0 -15465.15c-6724.73,-3020.83 -11437.03,-9780.19 -11417.32,-17606.68 0,-15616.8 0,-69224.76 0,-84841.56 -5.55,-2204.42 365.19,-4323.82 1049.8,-6299.21l-14829.34 0 0 83267.72 0.01 0 0 14173.23 0 1574.8 -787.4 0 -13779.53 0zm161811.03 -110948.16c-1976.8,-685.99 -4096.56,-1059.72 -6299.21,-1059.72l-1444.59 0 -17583.2 0 -1444.59 0c-7818.03,0 -14596.37,4696.95 -17616.77,11417.32l-15454.17 0 -787.4 0 0 1574.8 0 14173.23 787.4 0 0 -14173.23 14829.39 0c-684.61,1975.39 -1055.35,4094.79 -1049.8,6299.21 0,15616.8 0,69224.76 0,84841.56 -19.7,7826.47 4692.57,14585.81 11417.27,17606.66l0 15465.17 0 787.4 1574.8 0 7480.31 0 0 0.01 25590.55 0 0 14839.27c-1976.81,-686 -4096.59,-1059.74 -6299.27,-1059.74l-1444.59 0 -17583.2 0 -1444.59 0c-7818.03,0 -14596.37,4696.95 -17616.77,11417.32l-15454.1 0 -787.4 0 0 1574.8 0 21809.79 0 15829.24 0 21809.79 -14829.39 0c684.61,-1975.4 1055.36,-4094.8 1049.81,-6299.22 0,-15616.8 0,-31233.59 0,-46850.39 19.7,-7826.47 -4692.57,-14585.81 -11417.27,-17606.66l0 -15464.2 0 -787.4 -1574.8 0 -24091.43 0 0 -0.01 -8979.44 0 0 -14840.2c1976.8,685.99 4096.56,1059.72 6299.21,1059.72 6824.13,0 13648.26,0 20472.39,0 10617.27,0 19318.1,-8662.02 19291.34,-19291.34 0,-15616.8 0,-69224.76 0,-84841.56 19.7,-7826.47 -4692.57,-14585.81 -11417.27,-17606.66l0 -15464.2 0 -787.4 -1574.8 0 -24091.43 0 0 -0.01 -8979.44 0 0 -14839.27c1976.81,686 4096.59,1059.74 6299.27,1059.74l11148.18 0 271.98 0 68107.34 0 0 13779.54 0 787.4 1574.8 0 7480.31 0 0 0.01 25590.55 0 0 14839.24zm-132414.77 163704.07c-684.61,1975.39 -1055.35,4094.79 -1049.8,6299.2l0 35039.38 -13779.53 0 -787.4 0 0 1574.8 0 16535.43 -13779.53 0 0 -33858.27 13779.53 0 157.59 0 629.81 0 0 -25590.55 14829.33 0zm107087.77 -163976.39l17583.2 0 1444.59 0c8032.44,0 14832,5108.32 17404.04,12219.73 799.41,2210.3 1022.51,3901.15 1099.9,6284.2 0,15616.8 0,69224.76 0,84841.56 -77.39,2383.05 -300.49,4073.91 -1099.9,6284.2 -2572.04,7111.41 -9371.59,12219.73 -17404.04,12219.73 -6824.13,0 -13648.26,0 -20472.39,0 -8032.44,0 -14832,-5108.32 -17404.04,-12219.73 -799.41,-2210.3 -1022.51,-3901.15 -1099.9,-6284.2 0,-15616.8 0,-69224.76 0,-84841.56 77.39,-2383.05 300.49,-4073.91 1099.9,-6284.2 2572.04,-7111.41 9371.59,-12219.73 17404.04,-12219.73l1444.59 0zm-87401.63 151771.65l17583.2 0 1444.59 0c8032.44,0 14832,5108.32 17404.04,12219.73 799.42,2210.3 1022.51,3901.15 1099.9,6284.2 0,15616.8 0,31233.59 0,46850.39 -77.39,2383.05 -300.48,4073.91 -1099.9,6284.2 -2572.04,7111.41 -9371.59,12219.73 -17404.04,12219.73l-9052.22 0 -2367.94 0 -9052.22 0c-8032.44,0 -14832,-5108.32 -17404.04,-12219.73 -799.42,-2210.3 -1022.51,-3901.15 -1099.9,-6284.2 0,-15616.8 0,-31233.59 0,-46850.39 77.39,-2383.05 300.48,-4073.91 1099.9,-6284.2 2572.04,-7111.41 9371.59,-12219.73 17404.04,-12219.73l1444.59 0zm0 -151771.65l17583.2 0 1444.59 0c8032.44,0 14832,5108.32 17404.04,12219.73 799.41,2210.3 1022.51,3901.15 1099.9,6284.2 0,15616.8 0,69224.76 0,84841.56 -77.39,2383.05 -300.49,4073.91 -1099.9,6284.2 -2572.04,7111.41 -9371.59,12219.73 -17404.04,12219.73 -6824.13,0 -13648.26,0 -20472.39,0 -8032.44,0 -14832,-5108.32 -17404.04,-12219.73 -799.41,-2210.3 -1022.51,-3901.15 -1099.9,-6284.2 0,-15616.8 0,-69224.76 0,-84841.56 77.39,-2383.05 300.49,-4073.91 1099.9,-6284.2 2572.04,-7111.41 9371.59,-12219.73 17404.04,-12219.73l1444.59 0zm95009.2 235629.93l-9052.22 0c-8032.44,0 -14832,-5108.32 -17404.04,-12219.73 -799.42,-2210.3 -1022.51,-3901.15 -1099.9,-6284.2l0 -1468.7 0 -79.65 0 -45302.04c77.39,-2383.05 300.48,-4073.91 1099.9,-6284.2 2572.04,-7111.41 9371.59,-12219.73 17404.04,-12219.73l1444.59 0 17583.2 0 1444.59 0c8032.44,0 14832,5108.32 17404.04,12219.73 799.42,2210.3 1022.51,3901.15 1099.9,6284.2l0 45302.04 0 79.65 0 1468.7c-77.39,2383.05 -300.48,4073.91 -1099.9,6284.2 -2572.04,7111.41 -9371.59,12219.73 -17404.04,12219.73l-9052.22 0 -2367.94 0zm218900.85 -293874.72l14173.23 -22983.61 14173.23 22983.61 0 19186.63 -14173.23 17803.92 -14173.23 -17803.92 0 -19186.63zm8770.69 338355.89c1.56,4.56 1.86,7.01 0.67,7.01l-0.67 -7.01zm76662.38 -382867c0,-4698.72 -1866.56,-9204.99 -5189.06,-12527.48 -3322.49,-3322.49 -7828.76,-5189.05 -12527.48,-5189.05l-18612.48 0c-2657.89,0 -5136.41,1340.88 -6590.72,3565.59 -2558.54,3913.87 -5900.02,7255.35 -9813.88,9813.88 -2224.71,1454.31 -3565.59,3932.83 -3565.59,6590.72l0 14281.78 14566.93 23622.05 0 58310.3c0,28501.27 5606.28,56724.2 16499.71,83061.95 29213.69,70632.85 -1134.71,151832.57 -69513.46,185989.95l18084.32 0c31792.62,0 61822.23,-14608.19 81447.24,-39620.77 10510.78,-13396.26 27462.31,-20035.13 44275.15,-17339.83 11913.62,1909.89 23871.31,-3154.19 30789.69,-13039.43 6918.38,-9885.24 7581.41,-22854.11 1707.22,-33393.37 -5874.19,-10539.25 -17253.09,-16796.41 -29299.45,-16111.45 -20033.87,1139.24 -38860.21,-9624.04 -48042.06,-27466.25 -9181.85,-17842.21 -6997.56,-39417.84 5573.98,-55057.76 5359.26,-6667.32 9093.11,-14490.53 10906.03,-22850.45 3185.89,-14691.13 12274.86,-27424.81 25133.33,-35211.91 10736.33,-6501.92 16587.27,-18757.89 14892.12,-31194.54 -1695.15,-12436.65 -10612.77,-22679.63 -22697.66,-26070.98 -22484.55,-6309.65 -38023.9,-26809.95 -38023.9,-50162.96zm-76736.8 382086.61l0 0.04 -0 -0.04zm74.42 780.39l0.67 7.01 -0.67 -7.01zm-21765.65 -13572.15l-331.97 -714c-535.51,248.98 -1072.53,494.69 -1611.04,737.1l323.21 718.01c541.44,-243.73 1081.38,-490.77 1619.8,-741.1zm-43429 12464.58c589.22,-73.31 1177.99,-150.22 1766.27,-230.73l-106.76 -780.13c-585.1,80.07 -1170.69,156.57 -1756.73,229.49l97.22 781.37zm3598.26 -493.32c587.21,-87.98 1173.88,-179.55 1759.98,-274.7l-126.19 -777.23c-582.93,94.64 -1166.42,185.71 -1750.46,273.21l116.67 778.71zm3584.84 -582.87c584.83,-102.59 1169.04,-208.76 1752.58,-318.49l-145.52 -773.84c-580.39,109.14 -1161.43,214.73 -1743.11,316.77l136.05 775.56zm3569.2 -672.07c582.09,-117.14 1163.47,-237.83 1744.09,-362.08l-164.76 -769.97c-577.48,123.58 -1155.72,243.62 -1734.67,360.13l155.34 771.93zm3551.33 -760.84c579,-131.61 1157.18,-266.77 1734.52,-405.45l-183.91 -765.63c-574.22,137.94 -1149.28,272.36 -1725.15,403.26l174.54 767.81zm3531.26 -849.14c575.53,-146.01 1150.17,-295.54 1723.87,-448.57l-202.94 -760.8c-570.6,152.21 -1142.13,300.93 -1714.56,446.15l193.63 763.22zm3508.99 -936.91c571.71,-160.31 1142.44,-324.12 1712.16,-491.41l-221.85 -755.5c-566.63,166.39 -1134.28,329.31 -1702.9,488.75l212.59 758.16zm3484.54 -1024.11c567.54,-174.51 1134.01,-352.5 1699.37,-533.94l-240.61 -749.74c-562.31,180.46 -1125.71,357.48 -1690.19,531.06l231.43 752.62zm3457.93 -1110.66c563.01,-188.61 1124.87,-380.66 1685.53,-576.14l-259.23 -743.51c-557.63,194.43 -1116.45,385.44 -1676.42,573.03l250.12 746.62zm3429.16 -1196.52c558.14,-202.59 1115.03,-408.59 1670.65,-617.98l-277.69 -736.81c-552.61,208.26 -1106.5,413.15 -1661.62,614.64l268.65 740.15zm3398.27 -1281.64c552.91,-216.44 1104.5,-436.26 1654.72,-659.44l-295.97 -729.66c-547.25,221.98 -1095.85,440.61 -1645.78,655.87l287.02 733.22zm146751.38 -405144.21c590.49,-10.75 1180.78,-30.72 1770.64,-59.92l-62.99 -785.25c-589.88,28.94 -1180.18,48.53 -1770.68,58.76l63.03 786.41zm-53197.12 9.39l1771.65 0 0 -787.4 -1771.65 0 0 787.4zm3543.31 0l1771.65 0 0 -787.4 -1771.65 0 0 787.4zm3543.31 0l1771.65 0 0 -787.4 -1771.65 0 0 787.4zm3543.31 0l1771.65 0 0 -787.4 -1771.65 0 0 787.4zm5314.96 0l0 -787.4 -1771.65 0 0 787.4 1771.65 0zm66775.6 -8938.64l-444.68 -650.27c-497.61,318.09 -1000.23,628.27 -1507.67,930.43l445.28 651.25c507.17,-302.6 1009.59,-613.11 1507.06,-931.41zm12660.56 -12288.36c374.67,-456.53 742.07,-918.97 1102.08,-1387.15l639.09 460.61c-359.81,468.33 -726.91,931 -1101.17,1387.86l-639.99 -461.32zm-327.31 1610.69l-611.44 -496.72c-386.43,446.61 -779.91,887.08 -1180.3,1321.22l612.3 497.5c400.01,-434.5 793.2,-875.22 1179.44,-1322zm-2211.48 2413.61l-581.75 -531.19c-411.56,423.57 -829.81,840.58 -1254.59,1250.9l582.56 532c424.42,-410.68 842.4,-827.97 1253.78,-1251.71zm-3671.04 3459.21c447.42,-385.5 888.78,-777.97 1323.94,-1177.26l-550.12 -563.88c-435.33,399.1 -876.95,791.29 -1324.7,1176.4l550.88 564.74zm-2540.63 2064.3c468.92,-359.04 932.2,-725.37 1389.68,-1098.89l-516.65 -594.69c-457.64,373.31 -921.16,739.36 -1390.39,1097.98l517.37 595.59zm-2655.55 1914.22c488.86,-331.37 972.52,-670.36 1450.79,-1016.85l-481.47 -623.52c-478.42,346.28 -962.3,684.96 -1451.45,1015.9l482.13 624.46zm15065.76 -15040.95l-664.61 -422.95c-332.39,488.17 -672.49,971.05 -1020.18,1448.44l665.55 423.62c347.27,-477.7 687.06,-960.8 1019.24,-1449.11zm2200.48 -58663.47c282.87,518.44 557.5,1041.33 823.8,1568.47l680.52 -399.12c-266.76,-526.91 -541.73,-1049.62 -824.82,-1567.94l-679.5 398.58zm1463.67 2877.19c252.48,533.91 496.47,1071.78 731.9,1613.41l702.43 -359.18c-235.9,-541.43 -480.25,-1079.14 -732.95,-1612.93l-701.37 358.7zm1932.72 4609.83c-203.78,-554.32 -416.32,-1105.37 -637.56,-1652.96l720.91 -317.62c221.47,547.49 434.38,1098.4 638.63,1652.54l-721.98 318.04zm484.78 1373.74c189.26,559.44 369.65,1121.85 541.09,1687l739.14 -275.83c-171.93,-565.01 -352.69,-1127.29 -542.19,-1686.65l-738.04 275.48zm945.77 3086.43c156.66,569.43 304.28,1141.31 442.82,1715.42l753.82 -232.71c-139.04,-573.99 -287.03,-1145.77 -443.93,-1715.13l-752.71 232.42zm766.06 3135.87c123.53,577.53 237.9,1156.97 343.07,1738.12l766 -188.81c-105.67,-581.06 -220.42,-1160.43 -344.2,-1737.9l-764.87 188.59zm583.78 3174.86c89.99,583.69 170.72,1168.78 242.17,1755.02l775.62 -144.29c-71.96,-586.19 -153.08,-1171.21 -243.32,-1754.87l-774.48 144.13zm540.04 4969.34c-37.5,-589.4 -84.33,-1178.16 -140.48,-1766.07l781.51 -99.19c56.41,587.89 103.62,1176.62 141.63,1765.98l-782.65 99.28zm859.46 1400.99l-785.93 53.92c22.13,590.17 34.9,1180.66 38.31,1771.24l787.08 -53.94c-3.93,-590.57 -17.08,-1181.05 -39.46,-1771.22zm-822.17 5052.39c30.68,-589.79 52.01,-1180.03 63.99,-1770.5l787.73 -8.46c-11.72,590.47 -32.67,1180.72 -62.83,1770.54l-788.89 8.43zm-260.69 3217.54c64.67,-587.04 120.04,-1175.06 166.07,-1763.85l786.91 37.02c-45.78,588.81 -100.76,1176.87 -164.92,1763.96l-788.06 -37.12zm-178.37 1445.8c-79.94,585.15 -169.15,1169 -267.6,1751.33l784.6 82.55c97.94,-582.41 186.77,-1166.31 266.46,-1751.5l-783.46 -82.37zm-897.35 4917.39c131.89,-575.67 254.65,-1153.4 368.24,-1732.96l777.4 127.45c-113.33,579.61 -235.72,1157.42 -367.11,1733.2l-778.53 -127.69zm424.94 1587.73l-768.74 -172.11c-146.85,572.04 -302.75,1141.72 -467.65,1708.82l769.86 172.42c164.41,-567.24 319.93,-1137.02 466.53,-1709.13zm-1468.19 4825.67c196.87,-556.81 385.03,-1116.66 564.4,-1679.35l-757.53 -216.2c-179.61,562.61 -368.14,1122.34 -565.49,1678.98l758.62 216.56zm-519.48 1409.56l-743.79 -259.56c-211.79,551.3 -432.3,1099.22 -661.46,1643.54l744.86 259.99c228.68,-544.52 448.83,-1092.57 660.39,-1643.97zm-1260.36 3021.2l-727.57 -302.05c-243.26,538.16 -495.03,1072.44 -755.22,1602.62l728.61 302.54c259.73,-530.41 511.15,-1064.85 754.17,-1603.11zm-2278.08 4500.33c289.91,-514.54 571.76,-1033.57 845.44,-1556.91l-708.92 -343.54c-273.91,523.22 -556.1,1042.08 -846.46,1556.36l709.93 344.09zm-1688.59 2804.43c319.12,-496.95 630.46,-998.85 933.89,-1505.52l-687.91 -383.89c-303.66,506.54 -615.32,1008.24 -934.87,1504.91l688.89 384.5zm-9330.62 -71289.94c-429.49,-405.38 -865.38,-803.92 -1307.5,-1195.48l503.75 -605.66c442.29,391.37 878.44,789.63 1308.28,1194.63l-504.53 606.51zm1584.16 438.06l-537.87 575.57c418.78,416.43 830.94,839.47 1236.32,1268.96l538.7 -576.38c-405.76,-429.14 -818.19,-851.91 -1237.15,-1268.15zm2845.52 4255.07c-379.92,-452.17 -766.97,-898.3 -1161.02,-1338.2l570.2 -543.57c394.24,439.74 781.58,885.61 1161.89,1337.44l-571.07 544.33zm1523.12 617.7l-600.62 509.75c368,461.92 728.67,929.64 1081.85,1402.98l601.54 -510.45c-353.59,-473.04 -714.56,-940.52 -1082.76,-1402.28zm2336.19 4554.64c-325.28,-492.94 -658.34,-980.7 -999.07,-1463.08l629.04 -474.24c340.94,482.24 674.32,969.78 1000.02,1462.43l-629.99 474.89zm1699.38 2744.57c-296.28,-510.9 -600.64,-1017.06 -912.96,-1518.31l655.36 -437.14c312.54,501.11 617.22,1007.08 913.94,1517.71l-656.35 437.74zm-13773.24 -15875.11c463.98,365.39 922.15,738.11 1374.33,1118.03l468.69 -634.62c-452.5,-379.52 -910.91,-751.94 -1375.06,-1117.13l-467.96 633.72zm-66312.55 -2111.4c486.29,-335.14 977.86,-662.55 1474.52,-982.1l-467.58 -635.44c-496.39,319.99 -987.74,647.72 -1473.89,983.06l466.94 634.48zm2709.78 -1754.31c504.82,-306.51 1014.47,-605 1528.75,-895.36l-430.12 -661.36c-514.03,290.81 -1023.48,589.63 -1528.17,896.35l429.54 660.37zm2806.52 -1594.98c521.67,-276.86 1047.7,-545.44 1577.88,-805.63l-391.23 -685.09c-529.96,260.65 -1055.81,529.57 -1577.36,806.66l390.71 684.06zm2893.91 -1430.34c536.78,-246.29 1077.43,-484.06 1621.75,-713.22l-351.04 -706.52c-544.11,229.63 -1084.61,467.75 -1621.28,714.27l350.57 705.47zm2971.63 -1260.93c550.1,-214.9 1103.58,-421.06 1660.21,-618.42l-309.67 -725.61c-556.46,197.84 -1109.8,404.37 -1659.81,619.5l309.27 724.53zm3039.46 -1087.31c561.59,-182.79 1126.04,-356.67 1693.14,-521.57l-267.28 -742.27c-566.95,165.39 -1131.29,339.64 -1692.8,522.67l266.94 741.17zm3097.15 -910.06c571.2,-150.07 1144.75,-291.08 1720.42,-422.97l-223.99 -756.46c-575.56,132.4 -1149.01,273.78 -1720.15,424.1l223.71 755.34zm3144.52 -729.78c578.91,-116.85 1159.64,-224.52 1741.96,-322.97l-179.96 -768.13c-582.24,98.95 -1162.89,207 -1741.76,324.1l179.75 767zm3181.39 -547.07c584.69,-83.24 1170.67,-157.22 1757.7,-221.89l-135.32 -777.24c-586.98,65.19 -1172.9,139.54 -1757.56,223.04l135.18 776.09zm3207.67 -362.54c588.52,-49.36 1177.79,-89.39 1767.58,-120.07l-90.23 -783.75c-589.76,31.2 -1179,71.61 -1767.5,121.22l90.16 782.6zm4994.81 -194.65c-590.58,-3.41 -1181.17,2.54 -1771.56,17.85l-44.84 -786.5c590.38,-15.56 1180.97,-21.89 1771.55,-19l44.85 787.65zm1456.51 27.39c590.29,18.8 1180.24,46.94 1769.64,84.43l0.69 -788.93c-589.43,-36.98 -1179.4,-64.74 -1769.69,-83.28l-0.63 787.77zm3222.14 195.84c588.22,52.83 1175.57,114.99 1761.82,186.43l46.22 -787.57c-586.31,-70.93 -1173.7,-132.7 -1761.94,-185.28l-46.1 786.43zm3296.88 -400.96l-91.42 782.45c584.19,86.7 1166.97,182.65 1748.12,287.81l91.6 -783.59c-581.24,-104.66 -1164.08,-200.22 -1748.31,-286.67zm3223.11 572.44l-136.42 775.87c578.21,120.27 1154.48,249.7 1728.59,388.23l136.67 -777c-574.23,-138.03 -1150.58,-267.08 -1728.85,-387.1zm3003.72 1524.22c570.31,153.44 1138.15,315.91 1703.3,487.35l181.3 -767.81c-565.31,-170.94 -1133.25,-333.04 -1703.62,-486.24l-180.98 766.7zm3316.65 173.37l-224.93 754.98c560.5,186.11 1118.02,381.08 1672.34,584.85l225.31 -756.07c-554.5,-203.29 -1112.14,-397.9 -1672.72,-583.76zm2808.05 1860.23c548.83,218.15 1094.16,444.97 1635.8,680.4l268.57 -741.81c-541.84,-234.95 -1087.32,-461.42 -1636.24,-679.33l-268.13 740.74zm3274.57 554.43l-310.44 724.03c535.32,249.46 1066.65,507.38 1593.8,773.68l310.94 -725.07c-527.38,-265.83 -1058.87,-523.41 -1594.3,-772.64zm2926.67 1466.54l-351.71 704.91c520.03,279.94 1035.59,568.1 1546.48,864.38l352.27 -705.91c-511.15,-295.83 -1026.9,-583.65 -1547.04,-863.37zm2445.34 2316.44c503,309.49 1001.07,626.93 1494.01,952.2l392.43 -684.4c-493.23,-324.84 -991.5,-641.95 -1494.63,-951.22l-391.81 683.43zm2699.37 1770.3c484.3,338 963.22,683.66 1436.57,1036.84l431.28 -660.61c-473.66,-352.76 -952.8,-698.11 -1437.24,-1035.9l-430.6 659.68zm-66323.87 1719.53c466.14,-362.64 937.99,-717.88 1415.39,-1065.57l-503.48 -607.39c-477.09,348.11 -948.71,703.65 -1414.69,1066.5l502.78 606.46zm-7092.52 6578.2c396.64,-437.57 800.2,-868.83 1210.5,-1293.61l-600.64 -511.5c-409.94,425.14 -813.21,856.66 -1209.66,1294.4l599.8 510.72zm2236.16 -2328.12c421.24,-413.95 849.01,-821.2 1283.15,-1221.59l-570.12 -545.32c-433.8,400.77 -861.3,808.29 -1282.36,1222.42l569.32 544.48zm2366.8 -2195.17c444.43,-388.94 894.99,-770.82 1351.52,-1145.49l-537.69 -577.31c-456.2,375.06 -906.52,757.24 -1350.78,1146.37l536.94 576.44zm63007.39 92351.03c523.8,-272.83 1043.29,-553.82 1558.3,-842.88l-406.4 -674.85c-515.14,288.84 -1034.82,569.5 -1558.85,841.86l406.95 675.87zm-2945.77 1427.78c538.67,-242.14 1073.52,-492.68 1604.35,-751.53l-366.78 -697.18c-530.95,258.62 -1065.97,508.81 -1604.85,750.48l367.27 698.23zm-3023.27 1255.38c551.74,-210.65 1100.16,-429.9 1645.06,-657.68l-325.92 -717.19c-545,227.55 -1093.56,446.44 -1645.49,656.61l326.35 718.26zm-3090.69 1078.79c562.98,-178.45 1123.14,-365.68 1680.28,-561.63l-283.99 -734.81c-557.22,195.71 -1117.5,382.58 -1680.64,560.54l284.35 735.9zm-3147.8 898.61c572.34,-145.66 1142.38,-300.25 1709.89,-463.72l-241.1 -749.97c-567.58,163.22 -1137.72,317.44 -1710.19,462.6l241.41 751.09zm-3194.42 715.42c579.8,-112.38 1157.8,-233.81 1733.81,-364.25l-197.41 -762.64c-576.06,130.19 -1154.15,251.24 -1734.04,363.12l197.65 763.77zm-3230.39 529.86c585.31,-78.73 1169.37,-166.59 1751.94,-263.57l-153.07 -772.76c-582.61,96.73 -1166.72,184.22 -1752.11,262.43l153.24 773.9zm-3255.59 342.52c588.89,-44.81 1177.04,-98.82 1764.23,-162.01l-108.21 -780.31c-587.22,62.94 -1175.41,116.56 -1764.33,160.86l108.31 781.46zm-38750.51 163.44l1771.65 0 0 -787.4 -1771.65 0 0 787.4zm3543.31 0l1771.65 0 0 -787.4 -1771.65 0 0 787.4zm3543.31 0l1771.65 0 0 -787.4 -1771.65 0 0 787.4zm3543.31 0l1771.65 0 0 -787.4 -1771.65 0 0 787.4zm3543.31 0l1771.65 0 0 -787.4 -1771.65 0 0 787.4zm3543.31 0l1771.65 0 0 -787.4 -1771.65 0 0 787.4zm3543.31 0l1771.65 0 0 -787.4 -1771.65 0 0 787.4zm3543.31 0l1771.65 0 0 -787.4 -1771.65 0 0 787.4zm5314.96 0l0 -787.4 -1771.65 0 0 787.4 1771.65 0zm1771.65 0l1771.65 0 0 -787.4 -1771.65 0 0 787.4zm-41929.13 14566.93l1771.65 0 0 -787.4 -1771.65 0 0 787.4zm14173.23 0l0 -787.4 1771.65 0 0 787.4 -1771.65 0zm3543.31 0l0 -787.4 1771.65 0 0 787.4 -1771.65 0zm3543.31 0l0 -787.4 1771.65 0 0 787.4 -1771.65 0zm7086.61 0l0 -787.4 1771.65 0 0 787.4 -1771.65 0zm-3543.31 0l0 -787.4 1771.65 0 0 787.4 -1771.65 0zm-14173.23 0l0 -787.4 1771.65 0 0 787.4 -1771.65 0zm-3543.31 0l1771.65 0 0 -787.4 -1771.65 0 0 787.4zm-1771.65 0l0 -787.4 -1771.65 0 0 787.4 1771.65 0zm-7086.61 0l0 -787.4 -1771.65 0 0 787.4 1771.65 0zm-48228.35 -14960.63c0,-8697.39 -7050.62,-15748.02 -15748.01,-15748.03 -8697.39,-0.01 -15748.03,7050.6 -15748.05,15747.99 -0.02,8697.39 7050.58,15748.04 15747.97,15748.07 8697.39,0.04 15748.05,-7050.56 15748.09,-15747.95l0 -0.08z"/>
  <path class="fil2 str0" d="M412076.24 162222.27c0,-9567.13 -7755.69,-17322.82 -17322.81,-17322.83 -9567.13,-0.01 -17322.83,7755.66 -17322.86,17322.79 -0.03,9567.13 7755.64,17322.84 17322.76,17322.88 9567.13,0.04 17322.85,-7755.61 17322.91,-17322.74l0 -0.09zm-60305.46 -14960.62l0 784.03 8478.44 -0.26 1.97 3.62c78.78,0 157.39,-1.28 235.83,-3.63l3.59 0 -0.06 -0.08c2595.44,-78.71 4991.96,-1433.74 6395.68,-3630.45 6076.46,-9509.17 16582.32,-15263.48 27867.17,-15263.48 11284.84,0 21790.71,5754.3 27867.17,15263.48 1446.77,2264.09 3948.17,3634.16 6635.04,3634.16l4867.87 0 0 13779.53 -5514.1 0c-4.58,-393.87 -16.03,-787.63 -34.35,-1181.1l-788.27 0.09c49.43,1037.09 50.01,2075.84 1.72,3112.89l786.55 36.62c18.32,-393.47 29.77,-787.23 34.35,-1181.1l22443.24 0 0 -787.4 -15354.33 0 0 -13779.53 31033.12 0 0 -787.4 -37047.18 0c-2657.89,0 -5136.41,-1340.88 -6590.72,-3565.59 -6253.56,-9566.26 -16911.18,-15332.05 -28340.1,-15332.05 -11428.93,0 -22086.54,5765.79 -28340.1,15332.05 -1454.32,2224.71 -3932.83,3565.59 -6590.72,3565.59l0 0.01 -8051.81 0zm0 14564.75l0 787.4 2037.74 0 0 13781.7 -2037.74 0 0 787.4 4301.19 0 2710 0 1040.61 -0c2657.89,0 5136.4,1340.88 6590.72,3565.59 2558.53,3913.87 5900.02,7255.35 9813.88,9813.88 2224.71,1454.31 3565.59,3932.83 3565.59,6590.72l0 14281.78 -2033.07 3296.87 925.08 0 1895.39 -3073.6 0 -14933.65c0,-2686.87 -1370.07,-5188.26 -3634.16,-6635.04 -4043.36,-2583.74 -7476.04,-6016.42 -10059.78,-10059.78 -1446.78,-2264.09 -3948.17,-3634.16 -6635.04,-3634.16l-4867.87 0 0 -13781.7 5514.11 0 -0.01 2.17c4.58,393.87 16.04,787.63 34.35,1181.1l788.28 0c-49.44,-1037.06 -50.02,-2075.87 -1.72,-3112.98l-786.55 -36.62c-17.66,379.33 -28.95,758.93 -33.83,1138.64 -0.02,1.8 -0.05,16.33 -0.07,40.29l-9127.1 0zm42588.93 52905.34l787.4 0 0 -11564.58 13779.53 0 0 8490.98 1895.39 3073.6 925.08 0 -2033.07 -3296.87 0 -14281.78c0,-2657.89 1340.88,-5136.41 3565.59,-6590.72 3913.86,-2558.53 7255.35,-5900.02 9813.88,-9813.88 1454.31,-2224.71 3932.83,-3565.59 6590.72,-3565.59l18612.48 0c4698.72,0 9204.99,1866.56 12527.48,5189.05 3322.5,3322.5 5189.06,7828.77 5189.06,12527.48 0,2931.93 245.3,5818.79 718.16,8638.35l0 -10237.41c-139.03,-1602.83 -486.7,-3183.02 -1035.96,-4700.11l1035.96 -0 0 -1574.84 -1689.68 0c-2233.52,-4749.85 -6379.17,-8327.67 -11404.6,-9842.52l1549.35 0 0 -787.4 -25930.86 0c-2686.87,0 -5188.27,1370.07 -6635.04,3634.16 -2583.74,4043.36 -6016.42,7476.04 -10059.78,10059.78 -2264.09,1446.78 -3634.16,3948.17 -3634.16,6635.04l0 4867.87 -13779.53 0 0 -5514.1c393.87,-4.58 787.63,-16.04 1181.1,-34.35l-36.62 -786.55c-1024.9,47.72 -2051.46,47.72 -3076.36,0l-36.62 786.55c393.47,18.32 787.23,29.77 1181.1,34.35l0 18653.48zm-38976.38 -38336.23l0 0 -0 -0 0 0zm97440.94 -13779.53l1771.65 0 0 -787.4 -1771.65 0 0 787.4zm3543.31 0l1771.65 0 0 -787.4 -1771.65 0 0 787.4zm3543.31 0l1771.65 0 0 -787.4 -1771.65 0 0 787.4zm3543.31 0l1771.65 0 0 -787.4 -1771.65 0 0 787.4zm-2952.76 14566.93l1771.65 0 0 -787.4 -1771.65 0 0 787.4zm5314.96 0l0 -787.4 -1771.65 0 0 787.4 1771.65 0zm-7086.61 0l0 -787.4 -1771.65 0 0 787.4 1771.65 0zm-48228.35 -14960.63c0,-8697.39 -7050.62,-15748.02 -15748.01,-15748.03 -8697.39,-0.01 -15748.03,7050.6 -15748.05,15747.99 -0.02,8697.39 7050.58,15748.04 15747.97,15748.07 8697.39,0.04 15748.05,-7050.56 15748.09,-15747.95l0 -0.08z"/>
 </g>
 <g id="_0">
  <metadata id="CorelCorpID_1Corel-Layer"/>
  <rect class="fil2 str1" x="179.3" y="2894.66" width="604752.49" height="602907.31"/>
  <path class="fil1 str1" d="M472015.73 80991.14c11712.45,-15490.3 32628.03,-20739.58 50266.92,-12615.78 17638.9,8123.8 27245.07,27430.21 23086.72,46399.53 -4158.35,18969.31 -20959.99,32486.75 -40379.74,32486.75l-38258.22 0 0 787.4 38258.22 0c19789.65,0 36911.32,-13774.92 41148.88,-33105.55 4237.56,-19330.63 -5551.59,-39004.8 -23526.46,-47283.33 -17974.87,-8278.54 -39288.85,-2929.28 -51224.39,12856.08 -11161.92,14762.36 -28598.67,23438.31 -47105.73,23438.31l-36418.28 0 0 787.4 36469.1 0 0 -0.37c18734.91,-15.88 36382.47,-8804.78 47682.98,-23750.44z"/>
  <rect class="fil1 str2" x="328808.51" y="74820.7" width="47834.67" height="787.4"/>
  <rect class="fil0 str3" x="341997.5" y="61778.64" width="28894.47" height="1750"/>
  <rect class="fil1 str2" x="328808.52" y="103954.56" width="59055.13" height="787.4"/>
  <rect class="fil1 str2" x="119474.01" y="62222.27" width="57480.2" height="787.4"/>
  <rect class="fil1 str2" x="119474.01" y="62265.85" width="787.4" height="13342.25"/>
  <rect class="fil1 str2" x="176166.81" y="62265.85" width="787.4" height="13342.25"/>
  <rect class="fil1 str2" x="147820.39" y="63009.67" width="787.4" height="11811.02"/>
  <rect class="fil2 str1" x="172115.61" y="74820.7" width="1771.65" height="787.4"/>
  <rect class="fil0 str3" x="120737.66" y="74820.7" width="1771.65" height="787.4"/>
  <rect class="fil0 str3" x="173887.26" y="74820.7" width="1771.65" height="787.4"/>
  <rect class="fil1 str2" x="103338.75" y="308285.26" width="16217.48" height="1574.8"/>
  <rect class="fil1 str2" x="123493.56" y="103954.55" width="787.4" height="27559.05"/>
  <rect class="fil1 str2" x="160501.46" y="103954.55" width="787.4" height="27589.21"/>
  <rect class="fil1 str2" x="141997.52" y="103954.55" width="787.4" height="27559.05"/>
  <rect class="fil1 str2" x="160895.16" y="103954.56" width="22440.93" height="787.4"/>
  <rect class="fil1 str2" x="123493.56" y="130726.21" width="37795.28" height="787.4"/>
  <rect class="fil1 str2" x="126052.63" y="103954.56" width="1771.65" height="787.4"/>
  <rect class="fil1 str2" x="129595.94" y="103954.56" width="1771.65" height="787.4"/>
  <rect class="fil1 str2" x="133139.25" y="103954.56" width="1771.65" height="787.4"/>
  <rect class="fil1 str2" x="136682.56" y="103954.56" width="1771.65" height="787.4"/>
  <rect class="fil1 str2" x="140225.86" y="103954.56" width="1771.65" height="787.4"/>
  <rect class="fil1 str2" x="142784.92" y="103954.56" width="1771.65" height="787.4"/>
  <rect class="fil1 str2" x="146328.22" y="103954.56" width="1771.65" height="787.4"/>
  <rect class="fil1 str2" x="149871.53" y="103954.56" width="1771.65" height="787.4"/>
  <rect class="fil1 str2" x="153414.84" y="103954.56" width="1771.65" height="787.4"/>
  <rect class="fil1 str2" x="156958.15" y="103954.56" width="1771.65" height="787.4"/>
 </g>
</svg>
